<?xml version="1.0" encoding="UTF-8"?>
<!DOCTYPE svg PUBLIC "-//W3C//DTD SVG 1.1//EN" "http://www.w3.org/Graphics/SVG/1.1/DTD/svg11.dtd">
<svg version="1.1" xmlns="http://www.w3.org/2000/svg" xmlns:xlink="http://www.w3.org/1999/xlink" x="0" y="0" width="650" height="650" viewBox="0, 0, 650, 650">
  <g id="Layer_1">
    <path d="M325,636.755 C152.822,636.755 13.245,497.178 13.245,325 C13.245,152.822 152.822,13.245 325,13.245 C497.178,13.245 636.755,152.822 636.755,325 C636.755,497.178 497.178,636.755 325,636.755 z" fill="#2F2F2F"/>
    <path d="M494.158,186.865 L155.844,186.865 C132.764,186.865 113.99,205.638 113.99,228.718 L113.99,421.282 C113.99,444.361 132.764,463.135 155.844,463.135 L494.157,463.135 C517.236,463.135 536.01,444.361 536.01,421.282 L536.01,228.718 C536.011,205.638 517.237,186.865 494.158,186.865 z M508.109,228.718 L508.109,421.282 C508.109,423.483 507.489,425.492 506.576,427.345 L407.944,328.705 L508.081,228.568 C508.081,228.624 508.109,228.664 508.109,228.718 z M141.892,421.281 L141.892,228.718 C141.892,228.664 141.921,228.624 141.921,228.569 L242.058,328.706 L143.419,427.344 C142.512,425.492 141.892,423.483 141.892,421.281 z M329.307,367.889 C327.004,370.191 322.997,370.191 320.695,367.889 L167.581,214.767 L482.428,214.767 L329.307,367.889 z M261.785,348.434 L300.967,387.617 C307.391,394.04 315.927,397.576 325.001,397.576 C334.074,397.576 342.61,394.04 349.034,387.617 L388.218,348.434 L475.008,435.233 L174.986,435.233 L261.785,348.434 z" fill="#FFFFFF" display="none"/>
    <g>
      <path d="M465.279,187.832 L184.721,187.832 C158.841,187.832 137.961,208.711 137.961,234.553 L137.961,415.447 C137.961,441.25 158.841,462.168 184.721,462.168 L465.279,462.168 C491.045,462.168 512.039,441.289 512.039,415.447 L512.039,234.553 C512.039,208.75 491.045,187.832 465.279,187.832 z M484.046,408.212 C484.046,420.198 473.481,434.028 461.457,434.028 L180.711,432.415 C168.687,432.415 164.576,421.812 164.576,409.826 L167.803,238.796 C167.803,226.81 173.489,214.594 185.551,214.594 L464.684,216.207 C476.708,216.207 485.66,225.197 485.66,237.183 L484.046,408.212 z" fill="#FFFFFF"/>
      <path d="M449.973,272.037 L325,352.579 L199.989,272.037 C194.187,268.335 186.515,269.976 182.736,275.778 C179.033,281.58 180.675,289.291 186.477,293.032 L318.244,377.924 C320.305,379.26 322.633,379.909 325,379.909 C327.328,379.909 329.695,379.26 331.756,377.924 L463.447,293.032 C469.249,289.291 470.929,281.58 467.188,275.778 C463.447,269.976 455.698,268.335 449.973,272.037 L449.973,272.037 z" fill="#FFFFFF"/>
    </g>
  </g>
</svg>
