<?xml version="1.0" encoding="UTF-8"?>
<!DOCTYPE svg PUBLIC "-//W3C//DTD SVG 1.1//EN" "http://www.w3.org/Graphics/SVG/1.1/DTD/svg11.dtd">
<svg version="1.1" xmlns="http://www.w3.org/2000/svg" xmlns:xlink="http://www.w3.org/1999/xlink" x="0" y="0" width="650" height="650" viewBox="0, 0, 650, 650">
  <g id="Layer_1">
    <path d="M325,636.755 C152.822,636.755 13.245,497.178 13.245,325 C13.245,152.822 152.822,13.245 325,13.245 C497.178,13.245 636.755,152.822 636.755,325 C636.755,497.178 497.178,636.755 325,636.755 z" fill="#A44C61"/>
    <path d="M494.158,186.865 L155.844,186.865 C132.764,186.865 113.99,205.638 113.99,228.718 L113.99,421.282 C113.99,444.361 132.764,463.135 155.844,463.135 L494.157,463.135 C517.236,463.135 536.01,444.361 536.01,421.282 L536.01,228.718 C536.011,205.638 517.237,186.865 494.158,186.865 z M508.109,228.718 L508.109,421.282 C508.109,423.483 507.489,425.492 506.576,427.345 L407.944,328.705 L508.081,228.568 C508.081,228.624 508.109,228.664 508.109,228.718 z M141.892,421.281 L141.892,228.718 C141.892,228.664 141.921,228.624 141.921,228.569 L242.058,328.706 L143.419,427.344 C142.512,425.492 141.892,423.483 141.892,421.281 z M329.307,367.889 C327.004,370.191 322.997,370.191 320.695,367.889 L167.581,214.767 L482.428,214.767 L329.307,367.889 z M261.785,348.434 L300.967,387.617 C307.391,394.04 315.927,397.576 325.001,397.576 C334.074,397.576 342.61,394.04 349.034,387.617 L388.218,348.434 L475.008,435.233 L174.986,435.233 L261.785,348.434 z" fill="#FFFFFF" display="none"/>
    <g>
      <path d="M472.541,180.731 L177.459,180.731 C150.239,180.731 128.278,202.691 128.278,229.871 L128.278,420.129 C128.278,447.268 150.239,469.269 177.459,469.269 L472.541,469.269 C499.641,469.269 521.721,447.309 521.721,420.129 L521.721,229.871 C521.721,202.732 499.641,180.731 472.541,180.731 z M495.505,420.089 C495.505,432.695 485.188,442.973 472.541,442.973 L177.459,442.973 C164.812,442.973 154.495,432.695 154.495,420.089 L154.495,229.871 C154.495,217.265 164.772,206.987 177.459,206.987 L472.541,206.987 C485.188,206.987 495.505,217.265 495.505,229.871 L495.505,420.089 z" fill="#FFFFFF"/>
      <path d="M456.442,269.296 L325,354.006 L193.518,269.296 C187.415,265.401 179.346,267.128 175.371,273.23 C171.477,279.332 173.203,287.442 179.306,291.377 L317.894,380.664 C320.062,382.069 322.511,382.752 325,382.752 C327.449,382.752 329.938,382.069 332.106,380.664 L470.614,291.377 C476.716,287.442 478.483,279.332 474.548,273.23 C470.614,267.128 462.464,265.401 456.442,269.296 L456.442,269.296 z" fill="#FFFFFF"/>
    </g>
  </g>
</svg>
