<?xml version="1.0" encoding="UTF-8"?>
<!DOCTYPE svg PUBLIC "-//W3C//DTD SVG 1.1//EN" "http://www.w3.org/Graphics/SVG/1.1/DTD/svg11.dtd">
<svg version="1.1" xmlns="http://www.w3.org/2000/svg" xmlns:xlink="http://www.w3.org/1999/xlink" x="0" y="0" width="123.9" height="120.1" viewBox="0, 0, 123.9, 120.1">
  <g id="Layer_1">
    <path d="M61.95,-0 C27.639,-0 -0,26.792 -0,60.05 C-0,93.308 27.639,120.1 61.95,120.1 C96.261,120.1 123.9,93.308 123.9,60.05 C123.9,26.792 96.261,-0 61.95,-0 z" fill="#b2415e"/>
    <path d="M87.716,56.969 C89.079,68.392 90.442,79.815 92.01,91.147 C92.434,94.886 90.992,97.731 88.183,99.708 C87.247,100.366 86.015,100.91 84.807,100.953 C73.179,102.407 61.551,103.861 49.832,105.109 C47.507,105.4 45.435,104.597 43.592,103.202 C42.045,101.922 40.909,100.46 40.594,98.636 C40.412,98.226 40.436,97.724 40.346,97.519 C37.62,74.674 34.803,51.623 31.872,28.868 C31.381,24.422 34.261,20.942 36.931,19.763 C37.752,19.4 38.459,19.334 39.371,19.176 C44.934,18.438 50.498,17.699 56.152,17.165 C62.011,16.541 67.985,15.621 73.844,14.997 C77.583,14.573 81.021,16.245 82.768,19.645 C83.222,20.672 83.675,21.699 83.718,22.907 C84.99,34.124 86.353,45.547 87.716,56.969 z M42.527,62.445 C43.466,70.129 44.314,77.607 45.253,85.291 C45.344,85.496 45.32,85.997 45.41,86.203 C45.658,87.32 46.522,88.166 47.731,88.123 C59.153,86.76 70.781,85.306 82.204,83.943 C82.705,83.967 83.116,83.786 83.436,83.399 C83.961,82.922 84.1,82.124 84.033,81.418 C82.065,65.845 80.211,49.977 78.243,34.404 L77.698,33.172 C77.13,32.441 76.333,32.303 75.626,32.369 C64.204,33.732 53.077,35.21 41.654,36.573 L40.628,37.026 C39.897,37.595 39.667,38.187 39.619,39.189 C40.764,46.782 41.588,54.762 42.527,62.445 z M60.865,95.084 C61.223,98.116 63.839,100.151 66.872,99.793 C69.904,99.436 71.939,96.82 71.581,93.787 C71.224,90.755 68.608,88.72 65.575,89.077 C62.543,89.435 60.303,92.142 60.865,95.084 z M57.949,27.905 C59.568,27.681 61.392,27.366 63.102,27.348 C63.307,27.257 63.513,27.166 63.603,27.372 C64.014,27.19 64.219,27.1 64.243,26.598 C64.291,25.595 63.905,25.275 62.902,25.227 L62.697,25.318 C59.253,25.857 55.925,26.1 52.482,26.638 C52.277,26.729 52.071,26.82 51.775,26.705 C51.365,26.886 51.159,26.977 51.135,27.478 C51.087,28.481 51.565,29.007 52.477,28.849 L52.682,28.759 C54.621,28.148 56.331,28.129 57.949,27.905 z" fill="#FFFFFF"/>
  </g>
</svg>
