<?xml version="1.0" encoding="UTF-8"?>
<!DOCTYPE svg PUBLIC "-//W3C//DTD SVG 1.1//EN" "http://www.w3.org/Graphics/SVG/1.1/DTD/svg11.dtd">
<svg version="1.1" xmlns="http://www.w3.org/2000/svg" xmlns:xlink="http://www.w3.org/1999/xlink" x="0" y="0" width="123.9" height="120.1" viewBox="0, 0, 123.9, 120.1">
  <g id="Layer_1">
    <path d="M61.95,0 C27.639,0 -0,26.792 -0,60.05 C-0,93.308 27.639,120.1 61.95,120.1 C96.261,120.1 123.9,93.308 123.9,60.05 C123.9,26.792 96.261,0 61.95,0 z" fill="#B2415E"/>
    <path d="M90.088,60.237 C90.404,70.918 90.72,81.599 91.267,92.22 C91.346,95.714 89.501,98.162 86.268,99.65 C85.191,100.145 83.806,100.5 82.497,100.396 C69.794,100.355 57.092,100.315 44.312,100.074 C41.772,100.066 39.616,99.081 37.767,97.578 C36.226,96.216 35.147,94.735 34.992,93.017 C34.837,92.618 34.913,92.159 34.837,91.959 C34.205,70.598 33.495,49.037 32.632,27.734 C32.552,23.582 36.014,20.719 39.016,19.95 C39.939,19.713 40.709,19.736 41.71,19.699 C47.791,19.679 53.874,19.658 60.033,19.837 C66.423,19.958 72.966,19.819 79.356,19.94 C83.436,19.993 86.979,21.94 88.521,25.278 C88.908,26.278 89.293,27.278 89.217,28.395 C89.456,38.876 89.772,49.557 90.088,60.237 z M40.74,59.919 C40.977,67.106 41.136,74.093 41.372,81.281 C41.45,81.48 41.373,81.939 41.45,82.139 C41.604,83.197 42.452,84.079 43.762,84.183 C56.233,84.283 68.935,84.323 81.407,84.423 C81.946,84.504 82.408,84.386 82.793,84.068 C83.408,83.691 83.638,82.973 83.638,82.315 C83.088,67.74 82.692,52.908 82.142,38.333 L81.678,37.134 C81.139,36.393 80.292,36.172 79.522,36.149 C67.051,36.049 54.887,36.09 42.415,35.99 L41.261,36.286 C40.415,36.723 40.106,37.241 39.953,38.158 C40.421,45.286 40.504,52.732 40.74,59.919 z M57.239,92.151 C57.319,94.986 59.938,97.17 63.249,97.2 C66.559,97.231 69.021,95.063 68.941,92.228 C68.862,89.393 66.243,87.209 62.932,87.178 C59.622,87.148 56.93,89.375 57.239,92.151 z M60.887,29.941 C62.658,29.927 64.659,29.853 66.507,30.039 C66.738,29.98 66.969,29.92 67.046,30.121 C67.508,30.002 67.738,29.943 67.815,29.484 C67.968,28.566 67.584,28.225 66.506,28.062 L66.275,28.122 C62.502,28.21 58.884,28.039 55.112,28.126 C54.881,28.185 54.65,28.244 54.342,28.103 C53.881,28.221 53.649,28.281 53.572,28.739 C53.419,29.657 53.882,30.198 54.883,30.161 L55.113,30.103 C57.269,29.77 59.117,29.955 60.887,29.941 z" fill="#FFFFFF" display="none"/>
    <path d="M78.165,19.554 L45.735,19.554 C41.272,19.554 37.652,23.174 37.652,27.637 L37.652,92.455 C37.652,96.918 41.272,100.546 45.735,100.546 L78.157,100.546 C82.619,100.546 86.248,96.926 86.248,92.463 L86.248,27.637 C86.248,23.174 82.628,19.554 78.165,19.554 L78.165,19.554 z M61.95,96.496 C59.157,96.496 56.884,94.686 56.884,92.447 C56.884,90.207 59.148,88.397 61.95,88.397 C64.743,88.397 67.016,90.207 67.016,92.447 C67.016,94.686 64.743,96.496 61.95,96.496 z M78.148,84.348 L45.752,84.348 L46.473,30.344 L77.189,30.344 L78.148,84.348 z" fill="#FFFFFF"/>
  </g>
</svg>
