<?xml version="1.0" encoding="UTF-8"?>
<!DOCTYPE svg PUBLIC "-//W3C//DTD SVG 1.1//EN" "http://www.w3.org/Graphics/SVG/1.1/DTD/svg11.dtd">
<svg version="1.1" xmlns="http://www.w3.org/2000/svg" xmlns:xlink="http://www.w3.org/1999/xlink" x="0" y="0" width="150" height="150" viewBox="0, 0, 150, 150">
  <g id="Layer_1">
    <g>
      <path d="M75,150 C33.579,150 0,116.421 0,75 C0,33.579 33.579,0 75,0 C116.421,0 150,33.579 150,75 C150,116.421 116.421,150 75,150 z" fill="#995161"/>
      <path d="M44.472,28.978 L126.763,28.978" fill-opacity="0" stroke="#FFFFFF" stroke-width="11.719"/>
      <path d="M121.356,24.541 L122.094,108.701" fill-opacity="0" stroke="#FFFFFF" stroke-width="11.719"/>
      <path d="M48.029,26.705 L44.577,29.923 L41.157,26.672 z" fill-opacity="0" stroke="#FFFFFF" stroke-width="7.031"/>
      <path d="M124.333,112.727 L120.732,108.407 L123.981,103.816 z" fill-opacity="0" stroke="#FFFFFF" stroke-width="7.031"/>
    </g>
    <g>
      <path d="M25.179,114.599 L70.863,71.71" fill-opacity="0" stroke="#FFFFFF" stroke-width="11.719"/>
      <path d="M70.812,79.084 L33.286,38.903" fill-opacity="0" stroke="#FFFFFF" stroke-width="11.719"/>
      <path d="M28.981,113.836 L24.557,113.819 L24.237,118.753 z" fill-opacity="0" stroke="#FFFFFF" stroke-width="7.031"/>
      <path d="M32.233,34.309 L32.543,39.714 L37.143,40.223 z" fill-opacity="0" stroke="#FFFFFF" stroke-width="7.031"/>
    </g>
    <g>
      <path d="M35.548,125.757 L80.999,82.622" fill-opacity="0" stroke="#FFFFFF" stroke-width="11.719"/>
      <path d="M73.634,82.247 L111.585,122.028" fill-opacity="0" stroke="#FFFFFF" stroke-width="11.719"/>
      <path d="M36.529,122.006 L36.29,126.423 L31.346,126.459 z" fill-opacity="0" stroke="#FFFFFF" stroke-width="7.031"/>
      <path d="M116.111,123.344 L110.732,122.723 L110.489,118.101 z" fill-opacity="0" stroke="#FFFFFF" stroke-width="7.031"/>
    </g>
  </g>
</svg>
