<?xml version="1.0" encoding="UTF-8"?>
<!DOCTYPE svg PUBLIC "-//W3C//DTD SVG 1.1//EN" "http://www.w3.org/Graphics/SVG/1.1/DTD/svg11.dtd">
<svg version="1.1" xmlns="http://www.w3.org/2000/svg" xmlns:xlink="http://www.w3.org/1999/xlink" x="0" y="0" width="400" height="393.333" viewBox="0, 0, 400, 393.333">
  <g id="svgg">
    <path d="M183.815,10.017 C183.72,10.112 182.726,10.231 181.605,10.282 C180.484,10.333 179.65,10.509 179.751,10.672 C180.099,11.236 179.281,11.363 174.787,11.438 C172.003,11.485 169.972,11.702 169.483,12.005 C169.047,12.274 167.497,12.571 166.039,12.664 C164.523,12.76 163.177,13.06 162.895,13.364 C162.495,13.794 162.507,13.835 162.955,13.58 C163.297,13.384 163.413,13.417 163.26,13.665 C163.124,13.885 161.457,14.097 159.557,14.134 C157.122,14.182 155.979,14.366 155.683,14.754 C155.445,15.068 154.38,15.359 153.218,15.428 C151.664,15.522 151.223,15.683 151.383,16.099 C151.562,16.567 151.494,16.567 150.918,16.099 C150.47,15.736 150.342,15.717 150.538,16.043 C150.745,16.388 150.503,16.544 149.728,16.566 C149.12,16.582 148.268,16.681 147.835,16.785 C147.402,16.89 146.836,16.994 146.577,17.018 C146.318,17.041 146.141,17.252 146.183,17.487 C146.227,17.728 145.489,17.964 144.488,18.03 C143.514,18.095 142.526,18.396 142.294,18.699 C142.062,19.003 141.106,19.296 140.169,19.352 C138.916,19.426 138.418,19.638 138.282,20.159 C138.14,20.702 137.701,20.866 136.391,20.866 C135.336,20.866 134.565,21.078 134.37,21.42 C134.197,21.725 133.346,22.03 132.48,22.098 C131.614,22.166 130.728,22.445 130.512,22.718 C130.18,23.135 129.194,23.46 127.854,23.593 C127.692,23.609 127.559,23.888 127.559,24.213 C127.559,24.625 127.143,24.803 126.181,24.803 C125.219,24.803 124.803,24.981 124.803,25.394 C124.803,25.803 124.391,25.984 123.457,25.984 C121.847,25.984 120.795,26.338 121.072,26.786 C121.353,27.241 120.786,27.523 119.373,27.63 C118.708,27.681 118.252,27.864 118.359,28.037 C118.576,28.388 118.008,28.653 116.535,28.888 C115.994,28.974 115.595,29.242 115.65,29.483 C115.704,29.726 115.244,29.921 114.615,29.921 C113.48,29.921 112.377,30.75 112.864,31.237 C113.093,31.466 111.363,31.682 110.502,31.533 C110.324,31.502 110.291,31.659 110.429,31.883 C110.567,32.106 110.359,32.403 109.966,32.543 C109.573,32.683 108.911,33.08 108.495,33.426 C107.976,33.858 107.839,33.884 108.059,33.51 C108.236,33.21 107.823,33.376 107.143,33.879 C106.462,34.382 105.906,34.938 105.906,35.113 C105.906,35.289 105.457,35.433 104.909,35.433 C104.361,35.433 103.816,35.683 103.699,35.988 C103.502,36.501 101.764,37.221 101.083,37.072 C100.92,37.037 100.832,37.214 100.886,37.465 C100.94,37.717 100.575,38.027 100.075,38.154 C99.575,38.282 99.173,38.563 99.182,38.78 C99.2,39.225 97.413,39.802 97.072,39.461 C96.95,39.339 96.85,39.642 96.85,40.134 C96.85,40.791 96.684,40.965 96.223,40.789 C95.805,40.628 95.528,40.811 95.39,41.337 C95.255,41.852 94.853,42.126 94.233,42.126 C93.71,42.126 93.18,42.392 93.056,42.717 C92.931,43.041 92.494,43.307 92.084,43.307 C91.601,43.307 91.339,43.584 91.339,44.094 C91.339,44.801 90.799,45.022 89.504,44.847 C89.361,44.827 89.086,45.093 88.894,45.437 C88.701,45.781 88.287,46.063 87.973,46.063 C87.659,46.063 87.402,46.329 87.402,46.654 C87.402,46.978 87.136,47.244 86.811,47.244 C86.486,47.244 86.22,47.515 86.22,47.847 C86.22,48.455 85.704,48.779 84.381,49 C83.985,49.066 83.706,49.318 83.76,49.56 C83.814,49.802 83.681,50.022 83.465,50.049 C83.248,50.076 82.849,50.125 82.579,50.157 C82.308,50.189 82.111,50.522 82.141,50.895 C82.175,51.318 81.915,51.575 81.452,51.575 C81.043,51.575 80.709,51.841 80.709,52.165 C80.709,52.49 80.443,52.756 80.118,52.756 C79.793,52.756 79.528,53.022 79.528,53.346 C79.528,53.671 79.237,53.937 78.882,53.937 C78.527,53.937 77.982,54.247 77.672,54.626 C77.302,55.077 77.195,55.111 77.362,54.724 C77.529,54.338 77.422,54.372 77.053,54.823 C76.742,55.202 76.286,55.512 76.039,55.512 C75.792,55.512 75.591,55.681 75.591,55.888 C75.591,56.376 73.699,58.268 73.21,58.268 C73.004,58.268 72.835,58.533 72.835,58.858 C72.835,59.192 72.482,59.449 72.024,59.449 C71.55,59.449 71.321,59.623 71.473,59.869 C71.616,60.1 71.361,60.386 70.906,60.505 C70.451,60.624 70.079,61.035 70.079,61.417 C70.079,61.8 69.707,62.21 69.252,62.329 C68.796,62.448 68.541,62.734 68.684,62.966 C68.836,63.211 68.608,63.386 68.133,63.386 C67.688,63.386 67.323,63.633 67.323,63.934 C67.323,64.236 67.057,64.585 66.732,64.709 C66.407,64.834 66.142,65.207 66.142,65.539 C66.142,65.879 65.799,66.142 65.354,66.142 C64.917,66.142 64.567,66.404 64.567,66.732 C64.567,67.057 64.301,67.323 63.976,67.323 C63.648,67.323 63.386,67.673 63.386,68.11 C63.386,68.548 63.123,68.898 62.795,68.898 C62.47,68.898 62.205,69.163 62.205,69.488 C62.205,69.816 61.855,70.079 61.417,70.079 C60.984,70.079 60.63,70.326 60.63,70.627 C60.63,70.929 60.364,71.278 60.039,71.402 C59.715,71.527 59.444,71.856 59.438,72.133 C59.432,72.411 58.838,73.075 58.118,73.609 C57.398,74.143 56.827,74.847 56.849,75.174 C56.872,75.501 56.624,75.773 56.299,75.778 C55.974,75.783 55.687,76.009 55.659,76.28 C55.632,76.55 55.588,77.025 55.561,77.336 C55.534,77.646 55.157,78.012 54.724,78.15 C54.291,78.287 53.937,78.653 53.937,78.964 C53.937,79.274 53.692,79.528 53.392,79.528 C53.093,79.528 52.75,79.9 52.631,80.355 C52.512,80.81 52.226,81.065 51.995,80.922 C51.764,80.779 51.575,80.928 51.575,81.254 C51.575,81.579 51.265,82.077 50.886,82.36 C50.507,82.643 50.136,83.228 50.061,83.661 C49.986,84.094 49.676,84.59 49.372,84.764 C49.068,84.937 48.819,85.335 48.819,85.649 C48.819,85.964 48.549,86.22 48.22,86.22 C47.89,86.22 47.419,86.663 47.172,87.205 C46.926,87.746 46.575,88.189 46.393,88.189 C46.212,88.189 46.084,88.322 46.11,88.484 C46.26,89.438 45.986,90.157 45.472,90.157 C45.148,90.157 44.882,90.411 44.882,90.722 C44.882,91.032 44.523,91.399 44.084,91.539 C43.645,91.678 43.312,92 43.343,92.254 C43.487,93.422 43.259,94.094 42.717,94.094 C42.392,94.094 42.126,94.406 42.126,94.787 C42.126,95.168 41.785,95.693 41.368,95.953 C40.951,96.214 40.548,96.832 40.473,97.328 C40.397,97.823 40.118,98.184 39.853,98.13 C39.587,98.076 39.37,98.367 39.37,98.777 C39.37,99.187 39.104,99.624 38.78,99.749 C38.455,99.873 38.189,100.418 38.189,100.958 C38.189,101.542 37.865,102.114 37.391,102.368 C36.951,102.603 36.692,102.957 36.814,103.155 C36.937,103.353 36.683,103.868 36.25,104.301 C35.818,104.733 35.405,105.53 35.332,106.072 C35.26,106.614 35.047,107.196 34.86,107.367 C34.672,107.538 34.649,107.412 34.809,107.087 C34.968,106.762 34.825,106.832 34.491,107.243 C34.157,107.654 33.964,108.121 34.063,108.281 C34.162,108.441 33.989,108.784 33.677,109.042 C33.366,109.3 32.911,110.119 32.666,110.862 C32.421,111.604 32.053,112.109 31.848,111.982 C31.644,111.856 31.502,111.899 31.533,112.077 C31.775,113.47 31.446,114.523 30.841,114.291 C30.419,114.129 30.281,114.194 30.454,114.473 C30.601,114.711 30.541,115.018 30.321,115.154 C30.101,115.29 29.921,115.745 29.921,116.165 C29.921,116.585 29.734,116.929 29.504,116.929 C29.275,116.929 29.188,117.091 29.31,117.289 C29.432,117.487 29.36,117.709 29.149,117.781 C28.938,117.854 28.721,118.503 28.667,119.223 C28.612,119.943 28.402,120.635 28.2,120.76 C27.986,120.892 27.963,120.756 28.147,120.435 C28.383,120.02 28.344,119.99 27.99,120.316 C27.595,120.679 27.351,121.6 27.192,123.327 C27.178,123.489 26.9,123.622 26.575,123.622 C26.162,123.622 25.984,124.038 25.984,125 C25.984,125.861 25.794,126.378 25.477,126.378 C25.191,126.378 24.929,126.919 24.876,127.622 C24.824,128.306 24.499,129.072 24.155,129.324 C23.811,129.576 23.455,130.478 23.366,131.328 C23.276,132.178 22.982,133.051 22.712,133.268 C22.442,133.484 22.165,134.37 22.096,135.236 C21.951,137.056 21.749,137.507 21.223,137.182 C21.016,137.054 20.872,137.095 20.903,137.274 C21.172,138.823 20.802,141.289 20.327,141.107 C19.742,140.882 19.306,142.01 19.297,143.771 C19.294,144.351 19.019,145.098 18.687,145.43 C18.354,145.763 18.088,146.13 18.096,146.246 C18.264,148.763 18.037,150.394 17.52,150.394 C17.195,150.394 16.92,150.438 16.909,150.492 C16.898,150.546 16.789,151.731 16.667,153.125 C16.544,154.519 16.199,155.905 15.899,156.204 C15.56,156.543 15.354,157.613 15.354,159.035 C15.354,160.496 15.159,161.483 14.812,161.771 C14.427,162.09 14.25,163.365 14.202,166.169 C14.145,169.503 14.014,170.238 13.366,170.886 C12.699,171.553 12.598,172.215 12.598,175.961 C12.598,178.655 12.437,180.368 12.168,180.535 C11.931,180.681 11.817,181.218 11.914,181.727 C12.011,182.237 11.941,182.561 11.758,182.448 C11.137,182.064 11.416,214.21 12.045,215.426 C12.417,216.146 12.598,217.847 12.598,220.618 C12.598,225.063 12.775,225.984 13.625,225.984 C14.06,225.984 14.173,226.869 14.173,230.267 C14.173,233.593 14.305,234.659 14.764,235.039 C15.161,235.369 15.354,236.257 15.354,237.756 C15.354,239.064 15.59,240.319 15.925,240.798 C16.24,241.246 16.536,242.393 16.584,243.346 C16.694,245.546 16.88,246.063 17.562,246.063 C17.974,246.063 18.11,246.694 18.11,248.602 C18.11,250.45 18.271,251.232 18.7,251.472 C19.059,251.673 19.316,252.451 19.355,253.458 C19.396,254.499 19.688,255.355 20.143,255.767 C20.606,256.186 20.866,256.966 20.866,257.935 C20.866,259.018 21.034,259.449 21.457,259.449 C21.896,259.449 22.047,259.911 22.047,261.249 C22.047,262.323 22.285,263.286 22.638,263.639 C22.963,263.964 23.228,264.66 23.228,265.186 C23.228,265.711 23.406,266.142 23.622,266.142 C23.839,266.142 23.971,266.363 23.917,266.634 C23.863,266.905 24.04,267.082 24.311,267.028 C24.629,266.964 24.803,267.411 24.803,268.288 C24.803,269.066 25.047,269.783 25.375,269.966 C25.69,270.142 25.992,270.948 26.046,271.757 C26.101,272.566 26.297,273.228 26.482,273.228 C26.667,273.228 26.709,273.406 26.575,273.622 C26.441,273.839 26.57,274.016 26.861,274.016 C27.152,274.016 27.424,274.37 27.465,274.803 C27.627,276.502 27.705,276.725 28.107,276.651 C28.337,276.609 28.589,277.018 28.668,277.559 C28.747,278.1 29.061,278.822 29.365,279.163 C29.67,279.505 29.96,280.285 30.011,280.897 C30.067,281.579 30.373,282.082 30.8,282.193 C31.265,282.315 31.496,282.756 31.496,283.523 C31.496,284.18 31.749,284.767 32.087,284.897 C32.423,285.026 32.677,285.613 32.677,286.263 C32.677,286.899 32.872,287.358 33.118,287.303 C33.361,287.249 33.759,287.882 34.004,288.711 C34.249,289.539 34.626,290.198 34.843,290.175 C35.059,290.152 35.293,290.592 35.363,291.153 C35.433,291.714 35.743,292.27 36.052,292.388 C36.361,292.507 36.614,292.939 36.614,293.349 C36.614,293.832 36.891,294.094 37.402,294.094 C38.039,294.094 38.189,294.357 38.189,295.472 C38.189,296.435 38.367,296.85 38.78,296.85 C39.109,296.85 39.37,297.201 39.37,297.642 C39.37,298.077 39.715,298.729 40.137,299.09 C40.559,299.451 40.807,299.904 40.688,300.097 C40.569,300.289 40.844,300.544 41.299,300.663 C41.754,300.782 42.148,301.213 42.175,301.621 C42.202,302.029 42.247,302.509 42.274,302.688 C42.301,302.867 42.899,303.589 43.602,304.293 C44.306,304.997 44.882,305.913 44.882,306.329 C44.882,306.746 45.063,307.087 45.284,307.087 C45.505,307.087 45.885,307.524 46.129,308.059 C46.373,308.593 46.723,308.937 46.908,308.823 C47.093,308.708 47.244,308.91 47.244,309.27 C47.244,309.631 47.698,310.283 48.252,310.719 C48.828,311.172 49.168,311.754 49.044,312.076 C48.925,312.386 48.998,312.534 49.206,312.406 C49.413,312.278 49.696,312.623 49.834,313.173 C49.991,313.796 50.362,314.173 50.818,314.173 C51.319,314.173 51.476,314.367 51.314,314.787 C51.157,315.197 51.357,315.474 51.917,315.621 C52.399,315.746 52.756,316.156 52.756,316.581 C52.756,316.989 52.954,317.279 53.196,317.224 C53.438,317.17 53.689,317.447 53.755,317.84 C53.821,318.233 54.243,318.874 54.693,319.264 C55.143,319.655 55.512,320.175 55.512,320.42 C55.512,320.665 55.757,320.866 56.056,320.866 C56.356,320.866 56.698,321.238 56.817,321.693 C56.936,322.148 57.21,322.411 57.425,322.278 C57.641,322.145 57.931,322.393 58.069,322.829 C58.208,323.265 58.575,323.622 58.885,323.622 C59.195,323.622 59.449,323.888 59.449,324.213 C59.449,324.537 59.715,324.803 60.039,324.803 C60.367,324.803 60.63,325.153 60.63,325.591 C60.63,326.115 60.892,326.378 61.417,326.378 C61.855,326.378 62.205,326.64 62.205,326.969 C62.205,327.293 62.47,327.559 62.795,327.559 C63.12,327.559 63.408,327.825 63.435,328.15 C63.53,329.284 63.585,329.464 63.941,329.79 C64.152,329.983 64.18,329.875 64.01,329.528 C63.753,329.003 63.781,329.003 64.26,329.528 C64.557,329.852 65.057,330.366 65.372,330.668 C65.873,331.148 65.87,331.178 65.354,330.906 C64.838,330.633 64.836,330.663 65.336,331.143 C65.651,331.445 66.152,331.959 66.448,332.283 C66.745,332.608 66.883,332.665 66.755,332.409 C66.627,332.153 66.73,331.816 66.984,331.659 C67.262,331.487 67.339,331.545 67.178,331.805 C67.032,332.042 67.403,332.691 68.003,333.248 C68.603,333.804 69.103,334.479 69.112,334.748 C69.122,335.016 69.33,335.197 69.573,335.148 C69.817,335.1 70.429,335.495 70.933,336.027 C71.438,336.559 72.072,336.997 72.343,337.001 C72.613,337.005 72.835,337.274 72.835,337.598 C72.835,337.923 73.1,338.189 73.425,338.189 C73.753,338.189 74.016,338.539 74.016,338.976 C74.016,339.409 74.149,339.743 74.311,339.717 C75.114,339.59 75.61,339.808 75.377,340.184 C75.234,340.415 75.489,340.701 75.945,340.82 C76.399,340.939 76.772,341.282 76.772,341.581 C76.772,341.881 77.134,342.126 77.576,342.126 C78.121,342.126 78.344,342.346 78.265,342.806 C78.188,343.259 78.412,343.488 78.936,343.495 C79.369,343.5 79.723,343.77 79.723,344.094 C79.724,344.419 79.946,344.707 80.217,344.734 C80.487,344.761 80.974,344.806 81.299,344.833 C81.624,344.86 81.89,345.136 81.89,345.446 C81.89,345.756 82.228,346.117 82.641,346.248 C83.054,346.379 83.491,346.746 83.613,347.062 C83.734,347.379 84.105,347.638 84.436,347.638 C84.768,347.638 85.039,347.904 85.039,348.228 C85.039,348.553 85.305,348.841 85.63,348.868 C86.764,348.963 86.945,349.018 87.27,349.374 C87.461,349.582 87.392,349.614 87.106,349.449 C86.836,349.294 86.614,349.261 86.614,349.376 C86.614,349.492 87.151,349.864 87.808,350.204 C88.465,350.543 88.897,350.991 88.769,351.198 C88.641,351.405 88.812,351.575 89.15,351.575 C89.488,351.575 90.118,351.929 90.551,352.362 C90.984,352.795 91.703,353.15 92.149,353.15 C92.623,353.15 92.852,353.324 92.7,353.57 C92.557,353.801 92.812,354.087 93.267,354.206 C93.722,354.325 94.094,354.668 94.094,354.967 C94.094,355.327 94.562,355.512 95.472,355.512 C96.347,355.512 96.85,355.7 96.85,356.028 C96.85,356.734 98.996,358.268 99.984,358.268 C100.436,358.268 100.787,358.526 100.787,358.858 C100.787,359.183 101.099,359.449 101.48,359.449 C101.861,359.449 102.386,359.79 102.646,360.207 C102.907,360.624 103.525,361.027 104.02,361.102 C104.516,361.177 104.877,361.456 104.823,361.722 C104.76,362.03 105.223,362.205 106.102,362.205 C107.018,362.205 107.48,362.389 107.48,362.753 C107.48,363.355 108.308,363.78 109.481,363.78 C109.896,363.78 110.192,363.997 110.138,364.262 C110.084,364.528 110.438,364.806 110.925,364.88 C111.412,364.955 111.811,365.175 111.811,365.37 C111.811,365.566 112.387,365.882 113.091,366.074 C113.794,366.265 114.321,366.638 114.262,366.902 C114.202,367.165 114.335,367.269 114.557,367.132 C114.779,366.995 114.961,367.07 114.961,367.3 C114.961,367.529 115.094,367.696 115.256,367.67 C116.394,367.49 117.337,367.77 117.074,368.209 C116.902,368.495 117.087,368.454 117.518,368.11 C118.189,367.575 118.234,367.584 117.999,368.209 C117.781,368.792 117.98,368.898 119.304,368.898 C120.604,368.898 120.866,369.03 120.866,369.685 C120.866,370.118 120.999,370.451 121.161,370.426 C122.288,370.248 123.607,370.546 123.524,370.959 C123.465,371.251 124.055,371.544 125,371.691 C125.866,371.825 126.398,371.963 126.181,371.997 C125.424,372.116 126.978,372.823 128.009,372.829 C128.581,372.832 129.148,373.091 129.268,373.403 C129.388,373.716 130.16,374.093 130.983,374.241 C131.807,374.388 132.746,374.739 133.071,375.021 C133.396,375.302 134.37,375.59 135.236,375.66 C136.236,375.741 136.775,375.967 136.713,376.28 C136.658,376.55 136.658,376.783 136.713,376.796 C136.767,376.81 137.608,376.907 138.583,377.013 C139.557,377.119 140.531,377.425 140.748,377.693 C140.965,377.962 141.931,378.235 142.896,378.3 C143.861,378.365 144.836,378.661 145.062,378.957 C145.3,379.27 146.349,379.532 147.56,379.583 C148.708,379.631 149.755,379.843 149.885,380.053 C150.029,380.287 149.906,380.307 149.569,380.103 C149.118,379.832 149.105,379.881 149.497,380.365 C149.797,380.735 150.765,380.994 152.056,381.047 C153.373,381.102 154.301,381.354 154.59,381.735 C154.841,382.066 155.151,382.324 155.279,382.31 C157.043,382.111 159.824,382.368 159.744,382.723 C159.607,383.337 161.515,383.656 166.24,383.81 C167.164,383.84 167.68,384.036 167.618,384.332 C167.497,384.914 167.603,384.929 172.267,384.99 C175.164,385.028 175.963,385.153 175.735,385.531 C175.539,385.858 175.667,385.839 176.115,385.476 C176.694,385.006 176.759,385.008 176.573,385.494 C176.39,385.97 177.436,386.078 183.156,386.174 C187.187,386.241 190.056,386.45 190.202,386.686 C190.849,387.733 209.151,387.733 209.798,386.686 C209.944,386.45 212.813,386.241 216.844,386.174 C222.564,386.078 223.61,385.97 223.427,385.494 C223.241,385.008 223.306,385.006 223.885,385.476 C224.333,385.839 224.461,385.858 224.265,385.531 C224.037,385.153 224.836,385.028 227.733,384.99 C232.397,384.929 232.503,384.914 232.382,384.332 C232.32,384.036 232.836,383.84 233.76,383.81 C238.485,383.656 240.393,383.337 240.256,382.723 C240.176,382.368 242.957,382.111 244.721,382.31 C244.849,382.324 245.159,382.066 245.41,381.735 C245.699,381.355 246.625,381.102 247.933,381.048 C249.07,381 250,380.806 250,380.615 C250,380.424 250.165,380.37 250.366,380.495 C250.568,380.62 250.861,380.514 251.018,380.261 C251.189,379.983 251.133,379.905 250.875,380.064 C250.64,380.209 250.355,380.178 250.242,379.994 C250.129,379.811 251.047,379.624 252.282,379.578 C253.706,379.526 254.687,379.285 254.965,378.921 C255.213,378.594 256.049,378.346 256.902,378.346 C257.769,378.346 258.735,378.055 259.19,377.657 C259.751,377.167 259.88,377.138 259.638,377.559 C259.35,378.059 259.395,378.07 259.931,377.636 C260.279,377.354 261.066,377.064 261.68,376.992 C262.293,376.92 262.939,376.841 263.114,376.817 C263.289,376.792 263.33,376.607 263.206,376.405 C262.869,375.86 263.429,375.645 265.457,375.54 C266.459,375.488 267.198,375.313 267.098,375.152 C266.834,374.724 267.436,374.443 268.843,374.336 C269.523,374.284 270.079,374.092 270.079,373.909 C270.079,373.726 270.3,373.709 270.571,373.871 C270.963,374.107 270.964,374.044 270.575,373.564 C270.155,373.045 270.291,372.954 271.559,372.907 C272.368,372.876 273.217,372.596 273.445,372.283 C273.674,371.971 274.471,371.657 275.218,371.586 C276.043,371.507 276.536,371.264 276.476,370.965 C276.421,370.685 276.803,370.451 277.362,370.423 C279.155,370.334 279.331,370.279 279.331,369.816 C279.331,369.564 279.492,369.209 279.689,369.029 C279.897,368.838 279.929,368.907 279.764,369.193 C279.609,369.464 279.669,369.685 279.898,369.685 C280.127,369.685 280.315,369.508 280.315,369.291 C280.315,369.075 280.752,368.898 281.287,368.898 C282.048,368.898 282.203,368.748 282.001,368.209 C281.766,367.584 281.811,367.575 282.482,368.11 C282.913,368.454 283.098,368.495 282.926,368.209 C282.663,367.77 283.606,367.49 284.744,367.67 C284.906,367.696 285.039,367.529 285.039,367.3 C285.039,367.07 285.221,366.995 285.443,367.132 C285.665,367.269 285.798,367.157 285.738,366.882 C285.677,366.601 286.137,366.287 286.789,366.164 C287.426,366.043 287.958,365.772 287.97,365.56 C287.982,365.348 288.227,365.14 288.515,365.098 C289.603,364.938 290.199,364.559 289.962,364.176 C289.755,363.841 291.163,363.565 292.224,363.733 C292.387,363.759 292.52,363.425 292.52,362.992 C292.52,362.355 292.782,362.205 293.898,362.205 C294.86,362.205 295.276,362.027 295.276,361.614 C295.276,361.109 295.702,360.938 296.683,361.049 C296.808,361.064 297.227,360.709 297.615,360.262 C298.003,359.815 298.521,359.449 298.767,359.449 C299.012,359.449 299.213,359.183 299.213,358.858 C299.213,358.526 299.564,358.268 300.016,358.268 C301.004,358.268 303.15,356.734 303.15,356.028 C303.15,355.716 303.621,355.512 304.343,355.512 C305.041,355.512 305.631,355.266 305.763,354.921 C305.888,354.596 306.237,354.331 306.538,354.331 C306.84,354.331 307.087,354.079 307.087,353.771 C307.087,353.464 307.63,353.093 308.294,352.947 C308.959,352.801 309.598,352.433 309.714,352.128 C309.831,351.824 310.262,351.575 310.672,351.575 C311.082,351.575 311.417,351.309 311.417,350.984 C311.417,350.659 311.64,350.394 311.913,350.394 C312.186,350.394 312.63,350.039 312.901,349.606 C313.179,349.161 313.819,348.819 314.373,348.819 C314.913,348.819 315.31,348.676 315.256,348.502 C315.141,348.132 317.278,346.063 317.774,346.063 C317.959,346.063 318.11,345.797 318.11,345.472 C318.11,345.148 318.363,344.882 318.673,344.882 C318.982,344.882 319.517,344.6 319.862,344.255 C320.206,343.911 320.795,343.577 321.169,343.514 C321.544,343.451 321.801,343.186 321.741,342.926 C321.68,342.665 321.99,342.358 322.43,342.243 C322.869,342.128 323.228,341.789 323.228,341.49 C323.228,341.19 323.494,340.945 323.819,340.945 C324.144,340.945 324.409,340.679 324.409,340.354 C324.409,340.026 324.759,339.764 325.197,339.764 C325.722,339.764 325.984,339.501 325.984,338.976 C325.984,338.539 326.247,338.189 326.575,338.189 C326.9,338.189 327.165,337.944 327.165,337.644 C327.165,337.141 328.509,336.46 329.262,336.581 C329.44,336.61 329.486,336.472 329.364,336.275 C329.128,335.892 329.857,335.129 330.512,335.073 C330.728,335.054 330.906,334.864 330.906,334.649 C330.906,334.435 331.397,333.804 331.997,333.248 C332.597,332.691 332.968,332.042 332.822,331.805 C332.661,331.545 332.738,331.487 333.016,331.659 C333.27,331.816 333.373,332.153 333.245,332.409 C333.117,332.665 333.255,332.608 333.552,332.283 C333.848,331.959 334.349,331.445 334.664,331.143 C335.164,330.663 335.162,330.634 334.646,330.919 C334.321,331.099 334.641,330.637 335.358,329.894 C336.074,329.151 336.855,328.543 337.092,328.543 C337.329,328.543 337.575,328.194 337.637,327.767 C337.7,327.34 338.012,326.808 338.33,326.586 C338.648,326.363 339.234,325.953 339.631,325.674 C340.029,325.396 340.089,325.276 339.764,325.408 C339.367,325.57 339.399,325.464 339.862,325.084 C340.241,324.774 340.551,324.318 340.551,324.071 C340.551,323.824 340.805,323.622 341.115,323.622 C341.425,323.622 341.792,323.265 341.931,322.829 C342.069,322.393 342.359,322.145 342.575,322.278 C342.79,322.411 343.061,322.16 343.176,321.72 C343.291,321.281 343.633,320.825 343.936,320.709 C344.24,320.592 344.488,320.196 344.488,319.829 C344.488,319.461 344.605,319.277 344.747,319.419 C345.103,319.775 346.107,318.893 345.839,318.459 C345.72,318.267 345.909,318.11 346.26,318.11 C346.61,318.11 346.787,317.933 346.654,317.717 C346.52,317.5 346.598,317.323 346.827,317.323 C347.056,317.323 347.244,316.98 347.244,316.562 C347.244,316.143 347.595,315.69 348.023,315.554 C348.452,315.418 348.762,315.178 348.712,315.022 C348.663,314.866 349.159,314.212 349.814,313.57 C351.12,312.291 351.181,312.177 351.181,311.024 C351.181,310.579 351.444,310.236 351.784,310.236 C352.116,310.236 352.535,309.838 352.715,309.35 C352.895,308.863 353.2,308.519 353.392,308.586 C353.583,308.653 353.829,308.333 353.937,307.874 C354.045,307.415 354.267,307.051 354.429,307.063 C354.592,307.076 354.739,306.954 354.758,306.791 C354.776,306.629 354.975,306.275 355.2,306.004 C355.424,305.733 355.459,305.512 355.276,305.512 C355.093,305.512 355.337,305.236 355.818,304.899 C356.299,304.562 356.693,304.03 356.693,303.718 C356.693,303.405 356.906,303.194 357.167,303.248 C357.636,303.345 357.729,303.109 357.825,301.575 C357.855,301.099 358.153,300.787 358.578,300.787 C359.015,300.787 359.305,300.468 359.345,299.941 C359.38,299.476 359.621,298.9 359.88,298.662 C360.236,298.335 360.273,298.374 360.034,298.819 C359.859,299.144 359.867,299.272 360.052,299.104 C360.237,298.936 360.447,298.409 360.52,297.932 C360.593,297.456 360.913,296.92 361.232,296.742 C361.55,296.563 361.811,295.895 361.811,295.256 C361.811,294.469 362.008,294.094 362.422,294.094 C362.758,294.094 363.218,293.563 363.445,292.913 C363.671,292.264 364.016,291.732 364.212,291.732 C364.407,291.732 364.567,291.467 364.567,291.142 C364.567,290.817 364.921,290.197 365.354,289.764 C365.787,289.331 366.142,288.622 366.142,288.189 C366.142,287.752 366.404,287.402 366.732,287.402 C367.145,287.402 367.323,286.986 367.323,286.024 C367.323,285.131 367.496,284.68 367.815,284.744 C368.108,284.803 368.356,284.333 368.429,283.582 C368.509,282.753 368.81,282.239 369.307,282.082 C369.723,281.95 370.045,281.72 370.024,281.57 C369.869,280.478 370.169,279.528 370.669,279.528 C371.082,279.528 371.26,279.112 371.26,278.15 C371.26,277.187 371.438,276.772 371.85,276.772 C372.175,276.772 372.463,276.417 372.49,275.984 C372.584,274.49 372.64,274.344 373.327,273.842 C373.791,273.503 374.016,272.806 374.016,271.709 C374.016,270.553 374.181,270.079 374.583,270.079 C374.953,270.079 375.192,269.568 375.272,268.602 C375.339,267.79 375.586,267.16 375.82,267.203 C376.055,267.245 376.273,267.067 376.306,266.809 C376.555,264.825 376.959,263.535 377.415,263.268 C377.742,263.077 377.953,262.265 377.953,261.201 C377.953,259.906 378.107,259.449 378.543,259.449 C379.083,259.449 379.389,257.746 379.163,256.004 C379.128,255.733 379.352,255.512 379.661,255.512 C380.302,255.512 380.695,254.344 380.703,252.419 C380.707,251.411 380.848,251.15 381.294,251.322 C381.617,251.445 381.861,251.42 381.838,251.265 C381.56,249.399 381.972,246.063 382.48,246.063 C382.805,246.063 383.082,246.019 383.095,245.965 C383.109,245.91 383.217,244.98 383.335,243.898 C383.454,242.815 383.753,241.674 384,241.361 C384.358,240.908 384.329,240.855 383.858,241.095 C383.335,241.363 383.335,241.337 383.859,240.876 C384.225,240.553 384.503,239.453 384.588,237.992 C384.675,236.502 384.929,235.514 385.276,235.315 C385.697,235.074 385.827,233.948 385.827,230.538 C385.827,226.5 385.897,226.058 386.568,225.882 C387.232,225.709 387.318,225.222 387.398,221.21 C387.513,215.426 387.486,215.754 387.833,215.968 C387.997,216.07 388.225,215.841 388.338,215.458 C388.682,214.302 388.547,181.471 388.2,181.686 C387.617,182.047 387.439,180.8 387.375,175.909 C387.322,171.761 387.211,170.99 386.59,170.452 C385.987,169.929 385.856,169.159 385.798,165.795 C385.747,162.816 385.604,161.812 385.251,161.948 C384.913,162.077 384.747,161.427 384.686,159.736 C384.577,156.72 384.55,156.583 383.973,156.104 C383.711,155.886 383.456,154.745 383.407,153.568 C383.348,152.16 383.084,151.195 382.637,150.747 C382.176,150.286 381.91,149.261 381.813,147.573 C381.715,145.878 381.515,145.11 381.189,145.177 C380.891,145.238 380.69,144.753 380.659,143.898 C380.632,143.14 380.566,142.343 380.512,142.126 C380.458,141.909 380.391,141.555 380.364,141.339 C380.337,141.122 380.094,140.989 379.823,141.043 C379.5,141.108 379.29,140.531 379.214,139.37 C379.15,138.396 378.849,137.409 378.547,137.177 C378.244,136.946 377.953,135.927 377.901,134.913 C377.838,133.703 377.628,133.071 377.289,133.071 C377.004,133.071 376.758,132.672 376.742,132.185 C376.686,130.553 376.426,129.749 375.809,129.298 C375.472,129.052 375.197,128.404 375.197,127.859 C375.197,127.314 374.931,126.648 374.606,126.378 C374.281,126.108 374.016,125.539 374.016,125.112 C374.016,124.686 373.671,123.899 373.25,123.364 C372.829,122.829 372.576,122.154 372.687,121.865 C372.798,121.576 372.696,121.221 372.461,121.076 C372.227,120.93 372.129,120.659 372.244,120.472 C372.359,120.286 372.246,120.005 371.993,119.848 C371.715,119.677 371.637,119.734 371.796,119.991 C371.941,120.226 371.917,120.507 371.742,120.615 C371.566,120.723 371.382,120.337 371.332,119.756 C371.177,117.961 371.033,117.357 370.683,117.039 C370.498,116.87 370.489,116.998 370.664,117.323 C370.887,117.737 370.854,117.796 370.554,117.52 C370.198,117.191 369.876,116.009 369.717,114.445 C369.7,114.27 369.507,114.237 369.289,114.372 C368.878,114.625 368.738,114.349 368.328,112.484 C368.196,111.88 367.915,111.491 367.705,111.621 C367.49,111.754 367.323,111.34 367.323,110.676 C367.323,110.027 367.118,109.369 366.868,109.214 C366.564,109.026 366.518,109.116 366.729,109.486 C366.966,109.901 366.927,109.931 366.573,109.606 C366.314,109.368 366.073,108.792 366.038,108.326 C366.003,107.861 365.835,107.48 365.664,107.48 C365.494,107.48 365.399,107.259 365.453,106.988 C365.507,106.718 365.33,106.54 365.059,106.594 C364.788,106.649 364.567,106.402 364.567,106.047 C364.567,105.692 364.302,105.205 363.977,104.965 C363.653,104.724 363.349,104.04 363.301,103.444 C363.249,102.804 362.927,102.27 362.512,102.138 C362.127,102.016 361.811,101.567 361.811,101.142 C361.811,100.717 361.545,100.267 361.22,100.142 C360.896,100.018 360.63,99.492 360.63,98.974 C360.63,98.399 360.4,98.031 360.039,98.031 C359.715,98.031 359.449,97.716 359.449,97.331 C359.449,96.946 359.094,96.375 358.661,96.063 C358.228,95.751 357.874,95.18 357.874,94.795 C357.874,94.41 357.608,94.094 357.283,94.094 C356.769,94.094 356.467,93.078 356.658,91.994 C356.689,91.813 356.356,91.57 355.917,91.456 C355.478,91.341 355.118,91.002 355.118,90.702 C355.118,90.403 354.852,90.157 354.528,90.157 C354.203,90.157 353.915,89.803 353.888,89.37 C353.792,87.836 353.699,87.6 353.23,87.697 C352.801,87.786 352.586,87.298 352.709,86.516 C352.735,86.353 352.402,86.22 351.969,86.22 C351.449,86.22 351.181,85.958 351.181,85.448 C351.181,85.024 350.793,84.315 350.319,83.874 C349.846,83.432 349.619,83.071 349.817,83.071 C350.014,83.071 349.781,82.795 349.3,82.458 C348.819,82.121 348.425,81.589 348.425,81.277 C348.425,80.964 348.159,80.709 347.835,80.709 C347.51,80.709 347.244,80.443 347.244,80.118 C347.244,79.793 346.999,79.528 346.699,79.528 C346.4,79.528 346.062,79.173 345.949,78.74 C345.836,78.307 345.461,77.953 345.116,77.953 C344.771,77.953 344.488,77.711 344.488,77.415 C344.488,77.12 344.121,76.411 343.672,75.84 C343.223,75.27 343.002,74.803 343.18,74.803 C343.358,74.802 342.989,74.359 342.36,73.818 C341.731,73.277 341.087,72.835 340.93,72.835 C340.772,72.835 340.546,72.462 340.427,72.008 C340.308,71.552 340.022,71.297 339.79,71.44 C339.544,71.592 339.37,71.364 339.37,70.889 C339.37,70.341 339.115,70.079 338.583,70.079 C338.145,70.079 337.795,69.816 337.795,69.488 C337.795,69.163 337.53,68.898 337.205,68.898 C336.877,68.898 336.614,68.548 336.614,68.11 C336.614,67.677 336.367,67.323 336.066,67.323 C335.764,67.323 335.415,67.057 335.291,66.732 C335.166,66.407 334.793,66.142 334.461,66.142 C334.124,66.142 333.858,65.8 333.858,65.367 C333.858,64.873 333.663,64.667 333.319,64.798 C333,64.921 332.695,64.676 332.569,64.195 C332.452,63.75 332.064,63.386 331.707,63.386 C331.346,63.386 331.172,63.199 331.316,62.966 C331.459,62.734 331.204,62.448 330.748,62.329 C330.277,62.206 329.921,61.794 329.921,61.371 C329.921,60.964 329.656,60.63 329.331,60.63 C329.006,60.63 328.74,60.364 328.74,60.039 C328.74,59.711 328.39,59.449 327.953,59.449 C327.515,59.449 327.165,59.186 327.165,58.858 C327.165,58.533 327.009,58.268 326.818,58.268 C326.344,58.268 323.044,54.995 323.146,54.626 C323.191,54.464 323.095,54.36 322.933,54.395 C322.19,54.558 320.472,53.796 320.472,53.304 C320.472,53.002 320.207,52.756 319.882,52.756 C319.557,52.756 319.291,52.511 319.291,52.211 C319.291,51.912 318.919,51.569 318.464,51.45 C318.009,51.331 317.738,51.071 317.861,50.871 C317.985,50.672 317.638,50.305 317.091,50.056 C316.545,49.807 316.209,49.422 316.346,49.201 C316.482,48.98 316.448,48.825 316.269,48.856 C315.194,49.043 313.78,48.748 313.78,48.336 C313.78,47.552 310.509,44.883 309.547,44.882 C308.924,44.882 308.661,44.648 308.661,44.094 C308.661,43.661 308.417,43.307 308.119,43.307 C307.821,43.307 307.356,43.041 307.087,42.717 C306.817,42.392 306.196,42.126 305.706,42.126 C305.133,42.126 304.739,41.832 304.6,41.299 C304.472,40.81 304.201,40.585 303.937,40.748 C303.678,40.908 303.409,40.711 303.296,40.281 C303.175,39.818 302.702,39.505 302.043,39.451 C301.461,39.403 300.921,39.176 300.845,38.948 C300.768,38.719 300.27,38.366 299.738,38.164 C299.207,37.962 298.881,37.619 299.015,37.402 C299.149,37.185 299.116,36.995 298.941,36.979 C297.557,36.852 296.623,36.503 296.348,36.013 C296.17,35.694 295.689,35.433 295.28,35.433 C294.871,35.433 293.964,34.91 293.264,34.27 C292.564,33.631 291.844,33.199 291.665,33.309 C291.485,33.42 291.339,33.323 291.339,33.094 C291.339,32.865 290.984,32.677 290.551,32.677 C290.114,32.677 289.764,32.415 289.764,32.087 C289.764,31.762 289.631,31.517 289.469,31.543 C288.113,31.757 286.947,31.436 287.15,30.906 C287.275,30.581 287.25,30.302 287.094,30.286 C285.808,30.153 284.788,29.817 284.273,29.357 C283.936,29.057 283.219,28.747 282.677,28.668 C282.136,28.589 281.737,28.307 281.791,28.042 C281.845,27.776 281.757,27.58 281.594,27.606 C280.353,27.802 279.156,27.461 278.964,26.858 C278.769,26.241 278.099,26.014 276.1,25.884 C275.839,25.867 275.705,25.724 275.802,25.566 C276.043,25.177 274.98,24.803 273.636,24.803 C272.864,24.803 272.471,24.567 272.327,24.016 C272.207,23.558 271.79,23.228 271.329,23.228 C270.298,23.228 269.253,22.822 269.453,22.498 C269.539,22.358 268.786,22.19 267.78,22.124 C266.702,22.052 265.821,21.77 265.633,21.435 C265.43,21.072 264.681,20.866 263.563,20.866 C262.134,20.866 261.811,20.735 261.811,20.152 C261.811,19.578 261.45,19.42 259.968,19.343 C258.955,19.291 257.936,19 257.705,18.697 C257.473,18.395 256.486,18.095 255.512,18.03 C254.351,17.954 253.774,17.744 253.839,17.421 C253.893,17.151 253.716,16.915 253.445,16.899 C250.993,16.748 249.344,16.415 249.016,16.004 C248.799,15.733 247.736,15.461 246.654,15.399 C245.469,15.331 244.56,15.064 244.37,14.73 C244.137,14.318 243.178,14.173 240.686,14.173 C237.803,14.173 237.351,14.085 237.552,13.562 C237.681,13.226 237.623,13.052 237.424,13.175 C237.225,13.298 236.968,13.247 236.854,13.061 C236.739,12.875 235.465,12.685 234.023,12.639 C232.58,12.592 231.023,12.327 230.562,12.049 C230.042,11.735 228.008,11.505 225.197,11.442 C220.646,11.339 219.909,11.223 220.252,10.668 C220.551,10.184 184.295,9.537 183.815,10.017 M243.504,52.331 C245.02,52.533 247.766,52.894 249.606,53.133 C263.58,54.948 288.167,61.47 298.622,66.135 C335.954,82.791 351.879,114.787 341.346,151.973 C340.886,153.594 340.35,155.55 340.153,156.317 C339.957,157.085 339.258,159.034 338.6,160.648 C337.942,162.262 337.404,163.705 337.403,163.855 C337.392,165.987 330.436,177.631 325.206,184.271 C310.561,202.864 279.291,222.757 249.016,232.742 C240.268,235.627 237.612,236.258 224.016,238.687 C220.636,239.29 189.845,239.268 184.449,238.658 C165.506,236.517 162.189,235.868 157.075,233.299 C143.913,226.688 139.169,211.317 143.516,189.37 C144.394,184.939 144.85,183.149 146.627,177.165 C151.231,161.659 163.629,139.254 170.204,134.559 C173.598,132.135 196.075,130.35 202.28,132.012 C209.223,133.872 208.416,136.093 196.318,148.425 C160.521,184.917 155.043,207.094 179.798,215.31 C192.38,219.486 215.859,219.843 231.102,216.088 C238.949,214.156 248.013,211.395 251.044,210.014 C251.726,209.703 252.421,209.449 252.588,209.449 C254.436,209.449 274.853,199.984 281.299,196.139 C318.519,173.94 337.647,136.843 324.477,112.402 C319.902,103.912 315.649,98.798 307.444,91.922 C305.688,90.451 299.714,86.462 297.244,85.112 C264.603,67.272 226.389,65.41 180.118,79.403 C170.676,82.259 158.719,86.284 155.649,87.641 C154.967,87.942 154.22,88.189 153.989,88.189 C153.759,88.189 152.988,88.442 152.277,88.752 C151.566,89.062 149.921,89.708 148.622,90.189 C147.323,90.669 145.702,91.302 145.019,91.594 C144.337,91.887 143.66,92.126 143.514,92.126 C143.209,92.126 127.714,98.238 123.031,100.205 C115.132,103.524 111.677,104.286 109.522,103.187 C103.766,100.25 100.641,90.833 103.921,86.305 C106.034,83.388 113.785,78.922 125.197,74.044 C128.337,72.702 131.26,71.443 131.693,71.246 C132.674,70.799 135.635,69.745 137.205,69.284 C137.854,69.093 139.626,68.566 141.142,68.113 C142.657,67.66 144.783,67.043 145.866,66.741 C146.949,66.438 149.163,65.806 150.787,65.335 C152.411,64.865 154.67,64.233 155.807,63.933 C156.944,63.632 158.804,63.137 159.941,62.834 C165.698,61.296 174.79,58.967 176.181,58.674 C177.047,58.491 179.35,57.968 181.299,57.512 C189.165,55.671 195.343,54.462 202.559,53.354 C204.508,53.054 206.634,52.699 207.283,52.565 C211.821,51.626 236.992,51.464 243.504,52.331 M164.762,90.334 C171.362,92.32 174.102,98.557 171.353,105.334 C169.191,110.662 165.598,117.242 160.398,125.394 C153.038,136.931 143.062,155.996 134.438,175 C133.946,176.083 133.022,178.12 132.383,179.528 C131.744,180.935 130.12,184.656 128.775,187.795 C127.429,190.935 126.172,193.858 125.981,194.291 C125.789,194.724 125.269,196.009 124.824,197.146 C124.38,198.282 123.652,200.143 123.207,201.28 C122.763,202.416 122.233,203.701 122.03,204.134 C121.827,204.567 121.211,206.161 120.662,207.677 C120.112,209.193 119.514,210.787 119.333,211.22 C118.231,213.852 114.071,225.514 111.469,233.268 C101.252,263.711 96.441,288.683 98.167,302.314 C99.772,314.988 102.829,319.654 112.205,323.736 C114.351,324.671 114.383,324.709 115.846,328.191 C117.745,332.708 117.725,333 115.348,335.364 C111.714,338.979 107.232,340.106 102.953,338.48 C102.087,338.151 99.961,337.498 98.228,337.029 C85.095,333.475 82.04,331.249 79.287,323.228 C78.246,320.196 78.229,304.927 79.26,299.016 C80.209,293.576 82.061,282.646 82.696,278.74 C83.598,273.192 85.016,265.876 86.357,259.843 C87.079,256.596 89.767,246.376 89.997,246.004 C90.093,245.849 90.688,244.072 91.321,242.054 C91.954,240.037 92.842,237.411 93.296,236.22 C93.749,235.03 94.572,232.726 95.126,231.102 C95.679,229.478 96.628,226.732 97.234,225 C97.841,223.268 98.74,220.522 99.233,218.898 C100.609,214.359 105.755,198.888 106.696,196.457 C107.157,195.266 107.767,193.671 108.051,192.913 C109.219,189.795 112.252,182.032 112.589,181.299 C112.963,180.483 113.793,178.407 115.501,174.016 C116.049,172.608 117.494,169.065 118.713,166.142 C119.931,163.219 121.023,160.561 121.138,160.236 C121.253,159.911 122.317,157.343 123.503,154.528 C126.299,147.886 126.707,146.928 127.444,145.276 C127.782,144.518 128.286,143.366 128.563,142.717 C128.841,142.067 129.969,139.535 131.069,137.089 C132.17,134.644 133.071,132.578 133.071,132.497 C133.071,132.417 133.975,130.431 135.079,128.085 C147.745,101.177 150.352,96.634 155.516,92.474 C158.576,90.009 161.462,89.341 164.762,90.334 M213.856,94.311 C222.986,97.422 214.808,111.607 199.692,118.88 C183.189,126.82 173.137,119.745 183.613,107.564 C189.076,101.212 196.319,96.86 205.906,94.168 C208.042,93.568 211.878,93.637 213.856,94.311 M241.924,135.859 C247.006,136.799 251.795,140.253 254.104,144.645 C256.519,149.238 252.117,154.534 248.641,151.217 C245.125,147.863 239.935,147.516 233.071,150.177 C200.417,162.837 186.836,180.747 201.089,192.357 C206.679,196.911 208.948,197.441 222.835,197.441 C237.477,197.441 242.503,196.517 257.081,191.142 C259.464,190.264 266.966,186.596 269.882,184.884 C271.181,184.121 272.776,183.199 273.425,182.836 C280.757,178.731 289.903,171.222 300.098,160.939 C305.025,155.971 309.055,152.087 309.055,152.308 C309.055,153.553 304.177,160.513 299.448,166.016 C290.89,175.973 280.596,184.341 267.913,191.649 C265.755,192.893 253.65,198.819 253.264,198.82 C253.093,198.821 251.624,199.366 250,200.032 C216.872,213.614 189.625,210.189 184.872,191.844 C178.927,168.902 217.248,131.298 241.924,135.859" fill="#9C3952" id="path1" display="none"/>
    <path d="M198,387 C92.514,387 7,301.486 7,196 C7,90.514 92.514,5 198,5 C303.486,5 389,90.514 389,196 C389,301.486 303.486,387 198,387 z" fill="#995161"/>
    <path d="M212.992,51.975 C210.502,52.165 207.933,52.43 207.283,52.565 C206.634,52.699 204.508,53.054 202.559,53.354 C195.343,54.462 189.165,55.671 181.299,57.512 C179.35,57.968 177.047,58.491 176.181,58.674 C174.79,58.967 165.698,61.296 159.941,62.834 C158.804,63.137 156.944,63.632 155.807,63.933 C154.67,64.233 152.411,64.865 150.787,65.335 C149.163,65.806 146.949,66.438 145.866,66.741 C144.783,67.043 142.657,67.66 141.142,68.113 C139.626,68.566 137.854,69.093 137.205,69.284 C135.635,69.745 132.674,70.799 131.693,71.246 C131.26,71.443 128.337,72.702 125.197,74.044 C113.785,78.922 106.034,83.388 103.921,86.305 C100.641,90.833 103.766,100.25 109.522,103.187 C111.677,104.286 115.132,103.524 123.031,100.205 C127.714,98.238 143.209,92.126 143.514,92.126 C143.66,92.126 144.337,91.887 145.019,91.594 C145.702,91.302 147.323,90.669 148.622,90.189 C149.921,89.708 151.566,89.062 152.277,88.752 C152.988,88.442 153.759,88.189 153.989,88.189 C154.22,88.189 154.967,87.942 155.649,87.641 C158.719,86.284 170.676,82.259 180.118,79.403 C226.389,65.41 264.603,67.272 297.244,85.112 C299.714,86.462 305.688,90.451 307.444,91.922 C315.649,98.798 319.902,103.912 324.477,112.402 C337.647,136.843 318.519,173.94 281.299,196.139 C274.853,199.984 254.436,209.449 252.588,209.449 C252.421,209.449 251.726,209.703 251.044,210.014 C225.582,221.616 182.71,221.51 169.945,209.813 C159.181,199.95 164.854,183.136 187.598,157.485 C188.465,156.508 192.388,152.431 196.318,148.425 C208.416,136.093 209.223,133.872 202.28,132.012 C196.075,130.35 173.598,132.135 170.204,134.559 C163.629,139.254 151.231,161.659 146.627,177.165 C144.85,183.149 144.394,184.939 143.516,189.37 C139.169,211.317 143.913,226.688 157.075,233.299 C162.189,235.868 165.506,236.517 184.449,238.658 C189.845,239.268 220.636,239.29 224.016,238.687 C237.612,236.258 240.268,235.627 249.016,232.742 C279.291,222.757 310.561,202.864 325.206,184.271 C330.436,177.631 337.392,165.987 337.403,163.855 C337.404,163.705 337.942,162.262 338.6,160.648 C339.258,159.034 339.957,157.085 340.153,156.317 C340.35,155.55 340.886,153.594 341.346,151.973 C348.535,126.593 342.39,100.469 325.228,83.456 C318.049,76.339 310.547,71.455 298.622,66.135 C288.167,61.47 263.58,54.948 249.606,53.133 C247.766,52.894 245.02,52.533 243.504,52.331 C239.593,51.81 218.389,51.563 212.992,51.975 M159.055,90.438 C153.148,92.479 149.186,98.294 138.86,120.079 C134.946,128.336 133.071,132.358 133.071,132.497 C133.071,132.578 132.17,134.644 131.069,137.089 C129.969,139.535 128.841,142.067 128.563,142.717 C128.286,143.366 127.782,144.518 127.444,145.276 C126.707,146.928 126.299,147.886 123.503,154.528 C122.317,157.343 121.253,159.911 121.138,160.236 C121.023,160.561 119.931,163.219 118.713,166.142 C117.494,169.065 116.049,172.608 115.501,174.016 C113.793,178.407 112.963,180.483 112.589,181.299 C112.252,182.032 109.219,189.795 108.051,192.913 C107.767,193.671 107.157,195.266 106.696,196.457 C105.755,198.888 100.609,214.359 99.233,218.898 C98.74,220.522 97.841,223.268 97.234,225 C96.628,226.732 95.679,229.478 95.126,231.102 C94.572,232.726 93.749,235.03 93.296,236.22 C92.842,237.411 91.954,240.037 91.321,242.054 C90.688,244.072 90.093,245.849 89.997,246.004 C88.962,247.679 84.477,267.789 82.696,278.74 C82.061,282.646 80.209,293.576 79.26,299.016 C78.229,304.927 78.246,320.196 79.287,323.228 C82.04,331.249 85.095,333.475 98.228,337.029 C99.961,337.498 102.087,338.151 102.953,338.48 C107.232,340.106 111.714,338.979 115.348,335.364 C117.725,333 117.745,332.708 115.846,328.191 C114.383,324.709 114.351,324.671 112.205,323.736 C102.829,319.654 99.772,314.988 98.167,302.314 C96.441,288.683 101.252,263.711 111.469,233.268 C114.071,225.514 118.231,213.852 119.333,211.22 C119.514,210.787 120.112,209.193 120.662,207.677 C121.211,206.161 121.827,204.567 122.03,204.134 C122.233,203.701 122.763,202.416 123.207,201.28 C123.652,200.143 124.38,198.282 124.824,197.146 C125.269,196.009 125.789,194.724 125.981,194.291 C126.172,193.858 127.429,190.935 128.775,187.795 C130.12,184.656 131.744,180.935 132.383,179.528 C133.022,178.12 133.946,176.083 134.438,175 C143.062,155.996 153.038,136.931 160.398,125.394 C165.598,117.242 169.191,110.662 171.353,105.334 C175.012,96.316 167.694,87.453 159.055,90.438 M205.906,94.168 C192.515,97.928 181.86,106.298 179.552,114.87 C176.175,127.41 201.683,122.686 213.405,108.601 C221.258,99.164 217.038,91.042 205.906,94.168 M372.797,122.765 C373.037,123.212 373.426,123.698 373.663,123.844 C373.972,124.035 373.971,123.88 373.659,123.298 C373.42,122.851 373.03,122.365 372.793,122.219 C372.485,122.028 372.486,122.183 372.797,122.765 M232.087,136.025 C217.845,138.716 198.84,153.268 189.967,168.274 C174.764,193.99 191.207,213.004 223.866,207.476 C232.11,206.081 242.387,203.153 250,200.032 C251.624,199.366 253.093,198.821 253.264,198.82 C253.65,198.819 265.755,192.893 267.913,191.649 C280.596,184.341 290.89,175.973 299.448,166.016 C304.177,160.513 309.055,153.553 309.055,152.308 C309.055,152.087 305.025,155.971 300.098,160.939 C289.903,171.222 280.757,178.731 273.425,182.836 C272.776,183.199 271.181,184.121 269.882,184.884 C266.966,186.596 259.464,190.264 257.081,191.142 C242.503,196.517 237.477,197.441 222.835,197.441 C208.948,197.441 206.679,196.911 201.089,192.357 C188.353,181.983 196.654,167.795 223.228,154.513 C226.969,152.643 228.873,151.804 233.071,150.177 C239.935,147.516 245.125,147.863 248.641,151.217 C252.117,154.534 256.519,149.238 254.104,144.645 C250.301,137.412 241.982,134.155 232.087,136.025 M388.28,183.858 C388.28,184.616 388.361,184.926 388.46,184.547 C388.559,184.168 388.559,183.548 388.46,183.169 C388.361,182.79 388.28,183.1 388.28,183.858 M388.28,212.598 C388.28,213.356 388.361,213.666 388.46,213.287 C388.559,212.908 388.559,212.288 388.46,211.909 C388.361,211.531 388.28,211.841 388.28,212.598 M336.393,328.839 L335.236,330.118 L336.516,328.962 C337.219,328.326 337.795,327.75 337.795,327.682 C337.795,327.378 337.47,327.646 336.393,328.839 M67.717,333.194 C67.717,333.262 68.292,333.838 68.996,334.474 L70.276,335.63 L69.119,334.35 C68.041,333.158 67.717,332.89 67.717,333.194 M330.103,335.138 L328.15,337.205 L330.217,335.251 C332.137,333.436 332.464,333.071 332.17,333.071 C332.108,333.071 331.178,334.001 330.103,335.138 M190.887,387.108 C191.085,387.306 191.667,387.402 192.179,387.322 C192.967,387.198 192.912,387.142 191.818,386.961 C191.036,386.831 190.669,386.889 190.887,387.108 M208.071,387.008 L206.89,387.308 L207.949,387.355 C208.532,387.381 209.118,387.224 209.252,387.008 C209.386,386.791 209.441,386.635 209.374,386.661 C209.307,386.686 208.72,386.843 208.071,387.008 M197.933,387.692 C199.07,387.771 200.93,387.771 202.067,387.692 C203.204,387.612 202.274,387.547 200,387.547 C197.726,387.547 196.796,387.612 197.933,387.692" fill="#FFFFFF" id="path0"/>
  </g>
</svg>
