<?xml version="1.0" encoding="UTF-8"?>
<!DOCTYPE svg PUBLIC "-//W3C//DTD SVG 1.1//EN" "http://www.w3.org/Graphics/SVG/1.1/DTD/svg11.dtd">
<svg version="1.1" xmlns="http://www.w3.org/2000/svg" xmlns:xlink="http://www.w3.org/1999/xlink" x="0" y="0" width="300" height="300" viewBox="0, 0, 300, 300">
  <defs>
    <clipPath id="Clip_1">
      <path d="M200.359,118.667 C205.33,118.667 209.359,123.029 209.359,128.411 L209.359,142.265 C209.359,147.647 205.33,152.01 200.359,152.01 L174.057,152.01 C169.086,152.01 165.057,147.647 165.057,142.265 L165.057,128.411 C165.057,123.029 169.086,118.667 174.057,118.667 L200.359,118.667 z"/>
    </clipPath>
    <filter id="Shadow_2">
      <feGaussianBlur in="SourceAlpha" stdDeviation="9.259"/>
      <feOffset dx="0" dy="0" result="offsetblur"/>
      <feFlood flood-color="#FFFFFF"/>
      <feComposite in2="offsetblur" operator="in"/>
    </filter>
    <clipPath id="Clip_3">
      <path d="M134.896,118.667 C139.866,118.667 143.896,123.029 143.896,128.411 L143.896,142.265 C143.896,147.647 139.866,152.01 134.896,152.01 L108.594,152.01 C103.623,152.01 99.594,147.647 99.594,142.265 L99.594,128.411 C99.594,123.029 103.623,118.667 108.594,118.667 L134.896,118.667 z"/>
    </clipPath>
    <filter id="Shadow_4">
      <feGaussianBlur in="SourceAlpha" stdDeviation="9.259"/>
      <feOffset dx="0" dy="0" result="offsetblur"/>
      <feFlood flood-color="#FFFFFF"/>
      <feComposite in2="offsetblur" operator="in"/>
    </filter>
    <clipPath id="Clip_5">
      <path d="M130.343,218.341 L177.73,218.341 L177.73,252.461 L130.343,252.461 z M175.619,222.452 L132.454,222.452 L132.454,239.714 C138.468,246.508 145.926,248.35 154.034,248.35 C162.143,248.35 169.6,246.504 175.619,239.714 L175.619,222.452 z"/>
    </clipPath>
    <filter id="Shadow_6">
      <feGaussianBlur in="SourceAlpha" stdDeviation="0.556"/>
      <feOffset dx="0" dy="2" result="offsetblur"/>
      <feFlood flood-color="#000000"/>
      <feComposite in2="offsetblur" operator="in"/>
    </filter>
    <clipPath id="Clip_7">
      <path d="M76.747,37.167 L231.327,37.167 L231.327,138.409 L76.747,138.409 z M154.033,41.5 C103.527,41.5 81.08,74.627 81.08,102.233 C81.08,129.84 90.747,137.507 92.307,129.84 C97.92,102.233 114.753,91.193 114.753,91.193 C148.433,118.8 142.813,96.713 142.813,96.713 C176.487,129.84 159.653,96.713 159.653,96.713 C170.88,107.76 204.547,107.76 204.547,107.76 C204.547,107.76 210.167,118.8 215.767,129.84 C221.387,140.893 226.993,129.84 226.993,102.233 C226.993,74.627 198.933,41.5 154.033,41.5 z"/>
    </clipPath>
    <filter id="Shadow_8">
      <feGaussianBlur in="SourceAlpha" stdDeviation="1.667"/>
      <feOffset dx="0" dy="0" result="offsetblur"/>
      <feFlood flood-color="#000000"/>
      <feComposite in2="offsetblur" operator="in"/>
    </filter>
    <clipPath id="Clip_9">
      <path d="M135.283,260.256 L172.318,260.256 L172.318,304.333 L135.283,304.333 z M167.984,264.589 L139.616,265.006 L144.452,291.88 L153.438,300 L162.425,291.38 L167.984,264.589 z"/>
    </clipPath>
    <filter id="Shadow_10">
      <feGaussianBlur in="SourceAlpha" stdDeviation="1.667"/>
      <feOffset dx="0" dy="0" result="offsetblur"/>
      <feFlood flood-color="#000000"/>
      <feComposite in2="offsetblur" operator="in"/>
    </filter>
    <clipPath id="Clip_11">
      <path d="M78.166,228.74 L110.68,228.74 L110.68,307.667 L78.166,307.667 z M106.346,236.407 L82.5,236.407 L82.5,300 L106.346,300 L106.346,236.407 z"/>
    </clipPath>
    <filter id="Shadow_12">
      <feGaussianBlur in="SourceAlpha" stdDeviation="1.667"/>
      <feOffset dx="0" dy="3.333" result="offsetblur"/>
      <feFlood flood-color="#000000"/>
      <feComposite in2="offsetblur" operator="in"/>
    </filter>
    <clipPath id="Clip_13">
      <path d="M197.393,228.74 L229.907,228.74 L229.907,307.667 L197.393,307.667 z M225.573,236.407 L201.727,236.407 L201.727,300 L225.573,300 L225.573,236.407 z"/>
    </clipPath>
    <filter id="Shadow_14">
      <feGaussianBlur in="SourceAlpha" stdDeviation="1.667"/>
      <feOffset dx="0" dy="3.333" result="offsetblur"/>
      <feFlood flood-color="#000000"/>
      <feComposite in2="offsetblur" operator="in"/>
    </filter>
    <clipPath id="Clip_15">
      <path d="M94.06,218.581 L158.367,218.581 L158.367,307.667 L94.06,307.667 z M112.343,226.251 C106.757,227.956 102.596,232.568 98.393,236.407 C98.393,244.36 106.347,260.253 122.24,276.153 C134.813,288.72 154.033,300 154.033,300 C154.033,275.653 146.087,268.207 138.14,260.253 C130.193,252.307 114.293,244.36 114.293,228.46 C114.205,227.158 113.831,226.18 112.343,226.251 z"/>
    </clipPath>
    <filter id="Shadow_16">
      <feGaussianBlur in="SourceAlpha" stdDeviation="1.667"/>
      <feOffset dx="0" dy="3.333" result="offsetblur"/>
      <feFlood flood-color="#000000"/>
      <feComposite in2="offsetblur" operator="in"/>
    </filter>
    <clipPath id="Clip_17">
      <path d="M149.7,218.585 L214.013,218.585 L214.013,307.667 L149.7,307.667 z M195.73,226.251 C194.087,226.393 193.895,226.755 193.78,228.46 C193.78,244.36 177.88,252.307 169.933,260.253 C161.987,268.207 154.033,275.653 154.033,300 C154.033,300 173.273,288.72 185.833,276.153 C201.727,260.253 209.68,244.36 209.68,236.407 C205.624,232.42 201.208,228.065 195.73,226.251 z"/>
    </clipPath>
    <filter id="Shadow_18">
      <feGaussianBlur in="SourceAlpha" stdDeviation="1.667"/>
      <feOffset dx="0" dy="3.333" result="offsetblur"/>
      <feFlood flood-color="#000000"/>
      <feComposite in2="offsetblur" operator="in"/>
    </filter>
    <clipPath id="Clip_19">
      <path d="M26.399,6.559 L144.324,6.559 L144.324,111.98 L26.399,111.98 z M132.665,14.892 C133.017,14.883 133.313,15.162 133.322,15.514 L135.806,103.559 L135.166,103.577 C105.23,104.422 50.134,97.417 35.099,90.425 C34.785,90.279 34.647,89.898 34.796,89.58 C34.948,89.252 35.326,89.114 35.656,89.267 C49.912,95.909 100.229,102.486 131.07,102.358 L134.484,102.344 L134.388,98.931 L132.036,15.55 C132.026,15.201 132.309,14.903 132.665,14.892 z M132.477,8.229 C128.445,8.342 125.259,11.705 125.372,15.738 L127.627,95.672 C113.437,95.376 99.298,94.322 85.203,92.649 C69.524,90.787 53.345,88.761 38.466,83.222 C34.798,81.521 30.452,83.099 28.753,86.764 C27.045,90.408 28.627,94.767 32.287,96.47 C48.46,103.99 104.475,111.112 135.354,110.241 L139.326,110.129 L142.658,110.035 L142.564,106.703 L139.986,15.326 C139.873,11.294 136.509,8.115 132.477,8.229 z"/>
    </clipPath>
    <filter id="Shadow_20">
      <feGaussianBlur in="SourceAlpha" stdDeviation="0.333"/>
      <feOffset dx="0" dy="0" result="offsetblur"/>
      <feFlood flood-color="#000000"/>
      <feComposite in2="offsetblur" operator="in"/>
    </filter>
    <clipPath id="Clip_21">
      <path d="M163.433,5.438 L314.503,5.438 L314.503,110.994 L163.433,110.994 z M178.541,102.328 L174.89,102.457 L174.25,102.475 L171.767,14.43 C171.757,14.078 172.037,13.782 172.389,13.772 C172.741,13.762 173.037,14.042 173.047,14.394 L175.399,97.794 L175.494,101.179 L178.878,101.03 C219.883,99.222 291.939,88.787 305.228,81.661 C305.541,81.497 305.93,81.613 306.097,81.924 C306.26,82.23 306.141,82.626 305.837,82.789 C296.194,87.374 283.028,89.367 272.581,91.258 C241.516,96.883 210.057,100.563 178.541,102.328 z M175.078,109.121 C213.808,108.029 293.694,96.855 308.985,88.666 C312.537,86.763 313.867,82.333 311.976,78.78 C310.061,75.218 305.656,73.9 302.098,75.775 C293.495,79.855 281.587,81.63 272.272,83.325 C242.435,88.755 212.224,92.258 181.967,94.202 L179.711,14.206 C179.597,10.173 176.234,6.994 172.201,7.108 C168.168,7.222 164.989,10.585 165.103,14.618 L167.68,105.995 L167.774,109.327 L171.106,109.233 L175.078,109.121 z"/>
    </clipPath>
    <filter id="Shadow_22">
      <feGaussianBlur in="SourceAlpha" stdDeviation="0.333"/>
      <feOffset dx="0" dy="0" result="offsetblur"/>
      <feFlood flood-color="#000000"/>
      <feComposite in2="offsetblur" operator="in"/>
    </filter>
    <clipPath id="Clip_23">
      <path d="M152.528,14.973 C112.817,16.093 96.224,27.192 81.933,48.77 L81.933,48.77 C66.727,71.714 83.054,88.501 59.665,105.067 L59.665,105.067 C45.155,115.333 107.851,122.101 155.525,120.757 L155.525,120.757 C203.199,119.412 265.421,109.121 250.355,99.688 L250.355,99.688 C226.07,84.467 241.424,66.787 224.949,44.736 L224.949,44.736 C209.472,23.997 184.329,14.076 152.528,14.973 z"/>
    </clipPath>
  </defs>
  <g id="g10">
    <g>
      <path d="M265.32,300 L265.32,284.1 C265.32,257.76 243.973,236.407 217.627,236.407 L90.447,236.407 C64.113,236.407 42.753,257.76 42.753,284.1 L42.753,300 L265.32,300 z" fill="#3E3E3E" id="path22"/>
      <path d="M193.78,260.253 L114.293,260.253 L114.293,228.46 L193.78,228.46 L193.78,260.253 z" fill="#FFFFFF" id="path24"/>
      <path d="M119.373,252.607 C133.247,262.687 142.02,268.213 154.033,268.213 C166.053,268.213 174.827,262.68 188.693,252.607 L188.693,206.913 L119.373,206.913 L119.373,252.607 z" fill="#EED9B7" id="path32"/>
      <path d="M101.927,140.507 C101.927,152.02 96.093,161.353 88.9,161.353 C81.707,161.353 75.867,152.02 75.867,140.507 C75.867,129 81.707,119.66 88.9,119.66 C96.093,119.66 101.927,129 101.927,140.507" fill="#EBD9BC" id="path40"/>
      <path d="M232.207,140.507 C232.207,152.02 226.373,161.353 219.18,161.353 C211.973,161.353 206.16,152.02 206.16,140.507 C206.16,129 211.973,119.66 219.18,119.66 C226.373,119.66 232.207,129 232.207,140.507" fill="#EBD9BC" id="path44"/>
      <path d="M154.036,68.2 C191.45,68.2 221.783,104.22 221.783,148.647 C221.783,193.073 191.45,229.1 154.036,229.1 C116.623,229.1 86.29,193.073 86.29,148.647 C86.29,104.22 116.623,68.2 154.036,68.2 z M109.849,131.462 C108.018,131.462 107.068,131.868 106.835,132.863 C106.741,133.263 106.779,133.714 106.924,134.318 C106.977,134.544 107.044,134.784 107.143,135.123 C107.127,135.065 107.343,135.794 107.404,136.005 C107.483,136.279 107.549,136.523 107.609,136.763 C107.676,137.031 107.948,137.194 108.215,137.127 C108.483,137.06 108.646,136.788 108.579,136.52 C108.516,136.268 108.447,136.013 108.365,135.729 C107.691,133.384 107.716,133.487 107.808,133.091 C107.903,132.687 108.43,132.462 109.849,132.462 C110.125,132.462 110.349,132.238 110.349,131.962 C110.349,131.686 110.125,131.462 109.849,131.462 z" fill="#F1DBB8"/>
      <path d="M122.24,147.973 L122.24,147.973 C117.867,147.973 114.293,144.393 114.293,140.02 L114.293,132.073 C114.293,127.7 117.867,124.127 122.24,124.127 C126.62,124.127 130.193,127.7 130.193,132.073 L130.193,140.02 C130.193,144.393 126.62,147.973 122.24,147.973" fill="#3E3E3E" id="path60"/>
      <path d="M185.833,147.973 L185.833,147.973 C181.467,147.973 177.887,144.393 177.887,140.02 L177.887,132.073 C177.887,127.7 181.467,124.127 185.833,124.127 C190.213,124.127 193.78,127.7 193.78,132.073 L193.78,140.02 C193.78,144.393 190.213,147.973 185.833,147.973" fill="#3E3E3E" id="path64"/>
      <path d="M157.4,173.076 L150.673,173.076 C148.82,173.076 147.307,168.396 147.307,162.658 C147.307,156.92 148.82,152.24 150.673,152.24 L157.4,152.24 C159.26,152.24 160.767,156.92 160.767,162.658 C160.767,168.396 159.26,173.076 157.4,173.076" fill="#3E3E3E" id="path68"/>
      <g>
        <path d="M174.057,118.667 L200.359,118.667 C205.33,118.667 209.359,123.029 209.359,128.411 L209.359,142.265 C209.359,147.647 205.33,152.01 200.359,152.01 L174.057,152.01 C169.086,152.01 165.057,147.647 165.057,142.265 L165.057,128.411 C165.057,123.029 169.086,118.667 174.057,118.667 z" fill="#E2E6FF" fill-opacity="0.097"/>
        <g>
          <path d="M145.538,99.148 L228.877,99.148 L228.877,171.528 L145.538,171.528 z M200.359,118.667 L174.057,118.667 C169.086,118.667 165.057,123.029 165.057,128.411 L165.057,142.265 C165.057,147.647 169.086,152.01 174.057,152.01 L200.359,152.01 C205.33,152.01 209.359,147.647 209.359,142.265 L209.359,128.411 C209.359,123.029 205.33,118.667 200.359,118.667 z" fill="rgba(0,0,0,0.152)" clip-path="url(#Clip_1)" filter="url(#Shadow_2)"/>
          <path d="M145.538,103.778 L228.877,103.778 L224.248,99.148 L224.248,171.528 L228.877,166.899 L145.538,166.899 L150.168,171.528 L150.168,99.148 L145.538,103.778 z M145.538,94.518 C142.982,94.518 140.909,96.591 140.909,99.148 L140.909,171.528 C140.909,174.085 142.982,176.158 145.538,176.158 L228.877,176.158 C231.434,176.158 233.507,174.085 233.507,171.528 L233.507,99.148 C233.507,96.591 231.434,94.518 228.877,94.518 L145.538,94.518 z M200.359,114.037 L174.057,114.037 C166.444,114.037 160.427,120.551 160.427,128.411 L160.427,142.265 C160.427,150.125 166.444,156.639 174.057,156.639 L200.359,156.639 C207.972,156.639 213.989,150.125 213.989,142.265 L213.989,128.411 C213.989,120.551 207.972,114.037 200.359,114.037 z M200.359,123.296 C202.687,123.296 204.729,125.508 204.729,128.411 L204.729,142.265 C204.729,145.169 202.687,147.38 200.359,147.38 L174.057,147.38 C171.729,147.38 169.687,145.169 169.687,142.265 L169.687,128.411 C169.687,125.508 171.729,123.296 174.057,123.296 L200.359,123.296 z" fill="rgba(0,0,0,0.152)" clip-path="url(#Clip_1)" filter="url(#Shadow_2)"/>
        </g>
      </g>
      <g>
        <path d="M108.594,118.667 L134.896,118.667 C139.866,118.667 143.896,123.029 143.896,128.411 L143.896,142.265 C143.896,147.647 139.866,152.01 134.896,152.01 L108.594,152.01 C103.623,152.01 99.594,147.647 99.594,142.265 L99.594,128.411 C99.594,123.029 103.623,118.667 108.594,118.667 z" fill="#E2E6FF" fill-opacity="0.097"/>
        <g>
          <path d="M80.075,99.148 L163.414,99.148 L163.414,171.528 L80.075,171.528 z M134.896,118.667 L108.594,118.667 C103.623,118.667 99.594,123.029 99.594,128.411 L99.594,142.265 C99.594,147.647 103.623,152.01 108.594,152.01 L134.896,152.01 C139.866,152.01 143.896,147.647 143.896,142.265 L143.896,128.411 C143.896,123.029 139.866,118.667 134.896,118.667 z" fill="rgba(0,0,0,0.152)" clip-path="url(#Clip_3)" filter="url(#Shadow_4)"/>
          <path d="M80.075,103.778 L163.414,103.778 L158.785,99.148 L158.785,171.528 L163.414,166.899 L80.075,166.899 L84.705,171.528 L84.705,99.148 L80.075,103.778 z M80.075,94.518 C77.518,94.518 75.446,96.591 75.446,99.148 L75.446,171.528 C75.446,174.085 77.518,176.158 80.075,176.158 L163.414,176.158 C165.971,176.158 168.044,174.085 168.044,171.528 L168.044,99.148 C168.044,96.591 165.971,94.518 163.414,94.518 L80.075,94.518 z M134.896,114.037 L108.594,114.037 C100.981,114.037 94.964,120.551 94.964,128.411 L94.964,142.265 C94.964,150.125 100.981,156.639 108.594,156.639 L134.896,156.639 C142.509,156.639 148.525,150.125 148.525,142.265 L148.525,128.411 C148.525,120.551 142.509,114.037 134.896,114.037 z M134.896,123.296 C137.224,123.296 139.266,125.508 139.266,128.411 L139.266,142.265 C139.266,145.169 137.224,147.38 134.896,147.38 L108.594,147.38 C106.266,147.38 104.223,145.169 104.223,142.265 L104.223,128.411 C104.223,125.508 106.266,123.296 108.594,123.296 L134.896,123.296 z" fill="rgba(0,0,0,0.152)" clip-path="url(#Clip_3)" filter="url(#Shadow_4)"/>
        </g>
      </g>
      <path d="M184.5,114.804 L193.107,115.113 C212.886,117.487 204.562,116.13 218.166,118.627 L218.165,126.437 C216.414,127.915 212.829,128.828 212.818,134.017 C212.786,154.468 204.332,157.461 188.214,157.557 C166.572,157.557 163.649,152.603 160.025,135.39 C159.224,131.575 157.284,129.256 154.03,129.256 C150.776,129.256 148.836,131.57 148.034,135.39 C144.422,152.603 141.499,157.557 119.856,157.557 C103.744,157.461 95.29,154.468 95.258,134.017 C95.247,128.828 91.662,127.915 89.909,126.439 L89.907,118.625 C100.073,116.58 112.246,114.806 123.57,114.806 C140.884,114.806 142.407,119.797 154.035,119.738 C165.664,119.797 167.208,114.806 184.5,114.806 L184.5,114.804 z M123.568,120.148 L123.568,120.148 C100.597,120.15 100.597,125.804 100.596,133.905 C100.597,149.167 104.711,152.122 119.882,152.213 C139.169,152.352 139.853,148.184 142.845,133.958 C143.658,130.111 143.481,127.316 142.332,125.643 C140.168,122.507 133.857,120.15 123.57,120.15 L123.568,120.148 z M184.499,120.148 L184.499,120.148 C174.214,120.15 167.903,122.507 165.743,125.643 C164.59,127.311 164.419,130.111 165.225,133.958 C168.223,148.184 168.907,152.352 188.188,152.213 C203.359,152.122 207.474,149.167 207.474,133.905 C207.474,125.804 207.474,120.15 184.5,120.15 L184.499,120.148 z" fill="#2D2D2D"/>
      <g id="path36">
        <path d="M175.619,222.452 L175.619,239.714 C169.6,246.504 162.143,248.35 154.034,248.35 C145.926,248.35 138.468,246.508 132.454,239.714 L132.454,222.452 L175.619,222.452 z" clip-path="url(#Clip_5)" filter="url(#Shadow_6)" fill="rgba(0,0,0,0.75)"/>
        <path d="M132.454,239.714 C138.468,246.508 145.926,248.35 154.034,248.35 C162.143,248.35 169.6,246.504 175.619,239.714 L175.619,222.452 L132.454,222.452 L132.454,239.714 z" fill="#3A3734"/>
      </g>
      <path d="M154.04,203.04 C132.147,203.04 125.42,197.433 124.307,196.3 C122.267,194.26 122.267,190.967 124.307,188.927 C126.28,186.96 129.427,186.907 131.48,188.747 C131.88,189.04 137.207,192.62 154.04,192.62 C171.533,192.62 176.58,188.76 176.627,188.72 C178.66,186.693 181.86,186.793 183.893,188.84 C185.927,190.873 185.813,194.26 183.78,196.3 C182.653,197.433 175.927,203.04 154.04,203.04" fill="#3E3E3E" id="path52"/>
      <g>
        <path d="M154.033,41.5 C198.933,41.5 226.993,74.627 226.993,102.233 C226.993,129.84 221.387,140.893 215.767,129.84 C210.167,118.8 204.547,107.76 204.547,107.76 C204.547,107.76 170.88,107.76 159.653,96.713 C159.653,96.713 176.487,129.84 142.813,96.713 C142.813,96.713 148.433,118.8 114.753,91.193 C114.753,91.193 97.92,102.233 92.307,129.84 C90.747,137.507 81.08,129.84 81.08,102.233 C81.08,74.627 103.527,41.5 154.033,41.5 z" clip-path="url(#Clip_7)" filter="url(#Shadow_8)" fill="rgba(0,0,0,0.75)"/>
        <path d="M154.033,41.5 C198.933,41.5 226.993,74.627 226.993,102.233 C226.993,129.84 221.387,140.893 215.767,129.84 C210.167,118.8 204.547,107.76 204.547,107.76 C204.547,107.76 170.88,107.76 159.653,96.713 C159.653,96.713 176.487,129.84 142.813,96.713 C142.813,96.713 148.433,118.8 114.753,91.193 C114.753,91.193 97.92,102.233 92.307,129.84 C90.747,137.507 81.08,129.84 81.08,102.233 C81.08,74.627 103.527,41.5 154.033,41.5 z" fill="#43403B"/>
      </g>
      <g id="path76">
        <path d="M167.984,264.589 L162.425,291.38 L153.438,300 L144.452,291.88 L139.616,265.006 L167.984,264.589 z" clip-path="url(#Clip_9)" filter="url(#Shadow_10)" fill="rgba(0,0,0,0.75)"/>
        <path d="M162.425,291.38 L153.438,300 L144.452,291.88 L139.616,265.006 L167.985,264.589 L162.425,291.38 z" fill="#FFFFFF"/>
      </g>
      <g>
        <path d="M106.346,236.407 L106.346,300 L82.5,300 L82.5,236.407 L106.346,236.407 z" clip-path="url(#Clip_11)" filter="url(#Shadow_12)" fill="rgba(0,0,0,0.75)"/>
        <path d="M106.347,300 L82.5,300 L82.5,236.407 L106.347,236.407 L106.347,300 z" fill="#993D55"/>
      </g>
      <g>
        <path d="M225.573,236.407 L225.573,300 L201.727,300 L201.727,236.407 L225.573,236.407 z" clip-path="url(#Clip_13)" filter="url(#Shadow_14)" fill="rgba(0,0,0,0.75)"/>
        <path d="M225.573,300 L201.727,300 L201.727,236.407 L225.573,236.407 L225.573,300 z" fill="#993D55"/>
      </g>
      <g>
        <path d="M112.343,226.251 C113.831,226.18 114.205,227.158 114.293,228.46 C114.293,244.36 130.193,252.307 138.14,260.253 C146.087,268.207 154.033,275.653 154.033,300 C154.033,300 134.813,288.72 122.24,276.153 C106.347,260.253 98.393,244.36 98.393,236.407 C102.596,232.568 106.757,227.956 112.343,226.251 z" clip-path="url(#Clip_15)" filter="url(#Shadow_16)" fill="rgba(0,0,0,0.75)"/>
        <path d="M98.393,236.407 C98.393,244.36 106.347,260.253 122.24,276.153 C134.813,288.72 154.033,300 154.033,300 C154.033,275.653 146.087,268.207 138.14,260.253 C130.193,252.307 114.293,244.36 114.293,228.46 C114.293,220.513 98.393,236.407 98.393,236.407" fill="#993D55"/>
      </g>
      <g>
        <path d="M195.73,226.251 C201.208,228.065 205.624,232.42 209.68,236.407 C209.68,244.36 201.727,260.253 185.833,276.153 C173.273,288.72 154.033,300 154.033,300 C154.033,275.653 161.987,268.207 169.933,260.253 C177.88,252.307 193.78,244.36 193.78,228.46 C193.895,226.755 194.087,226.393 195.73,226.251 z" clip-path="url(#Clip_17)" filter="url(#Shadow_18)" fill="rgba(0,0,0,0.75)"/>
        <path d="M209.68,236.407 C209.68,244.36 201.727,260.253 185.833,276.153 C173.273,288.72 154.033,300 154.033,300 C154.033,275.653 161.987,268.207 169.933,260.253 C177.88,252.307 193.78,244.36 193.78,228.46 C193.78,220.513 209.68,236.407 209.68,236.407" fill="#993D55"/>
      </g>
      <path d="M250.355,99.688 C226.07,84.467 241.418,66.787 224.949,44.736 C209.472,23.997 184.329,14.076 152.528,14.973 C112.817,16.093 96.224,27.192 81.933,48.77 C66.734,71.714 83.053,88.501 59.665,105.067 C45.155,115.333 107.857,122.101 155.525,120.757 C203.199,119.412 265.421,109.121 250.355,99.688" fill="#993D55" id="path72"/>
    </g>
    <g clip-path="url(#Clip_23)" id="g92">
      <g>
        <path d="M132.477,8.229 C136.509,8.115 139.873,11.294 139.986,15.326 L142.564,106.703 L142.658,110.035 L139.326,110.129 L135.354,110.241 C104.475,111.112 48.46,103.99 32.287,96.47 C28.627,94.767 27.045,90.408 28.753,86.764 C30.452,83.099 34.798,81.521 38.466,83.222 C53.345,88.761 69.524,90.787 85.203,92.649 C99.298,94.322 113.437,95.376 127.627,95.672 L125.372,15.738 C125.259,11.705 128.445,8.342 132.477,8.229 z M132.665,14.892 C132.309,14.903 132.026,15.201 132.036,15.55 L134.388,98.931 L134.484,102.344 L131.07,102.358 C100.229,102.486 49.912,95.909 35.656,89.267 C35.326,89.114 34.948,89.252 34.796,89.58 C34.647,89.898 34.785,90.279 35.099,90.425 C50.134,97.417 105.23,104.422 135.166,103.577 L135.806,103.559 L133.322,15.514 C133.313,15.162 133.017,14.883 132.665,14.892 z" clip-path="url(#Clip_19)" filter="url(#Shadow_20)" fill="rgba(0,0,0,0.75)"/>
        <path d="M139.232,106.797 L135.26,106.909 C106.618,107.717 50.108,101.081 33.693,93.447 C31.707,92.523 30.846,90.153 31.777,88.166 C32.701,86.173 35.065,85.319 37.058,86.243 C51.5,92.972 102.508,99.143 131.056,99.025 L128.704,15.645 C128.643,13.452 130.378,11.622 132.571,11.561 C134.763,11.499 136.593,13.228 136.655,15.42 L139.232,106.797 z" fill-opacity="0" stroke="#3E3E3E" stroke-width="6.667"/>
      </g>
      <g>
        <path d="M175.078,109.121 L171.106,109.233 L167.774,109.327 L167.68,105.995 L165.103,14.618 C164.989,10.585 168.168,7.222 172.201,7.108 C176.234,6.994 179.597,10.173 179.711,14.206 L181.967,94.202 C212.224,92.258 242.435,88.755 272.272,83.325 C281.587,81.63 293.495,79.855 302.098,75.775 C305.656,73.9 310.061,75.218 311.976,78.78 C313.867,82.333 312.537,86.763 308.985,88.666 C293.694,96.855 213.808,108.029 175.078,109.121 z M178.541,102.328 C210.057,100.563 241.516,96.883 272.581,91.258 C283.028,89.367 296.194,87.374 305.837,82.789 C306.141,82.626 306.26,82.23 306.097,81.924 C305.93,81.613 305.541,81.497 305.228,81.661 C291.939,88.787 219.883,99.222 178.878,101.03 L175.494,101.179 L175.399,97.794 L173.047,14.394 C173.037,14.042 172.741,13.762 172.389,13.772 C172.037,13.782 171.757,14.078 171.767,14.43 L174.25,102.475 L174.89,102.457 L178.541,102.328 z" clip-path="url(#Clip_21)" filter="url(#Shadow_22)" fill="rgba(0,0,0,0.75)"/>
        <path d="M174.984,105.789 L171.012,105.901 L168.435,14.524 C168.373,12.331 170.102,10.502 172.295,10.44 C174.487,10.378 176.317,12.107 176.379,14.3 L178.731,97.7 C214.807,96.109 289.842,86.13 303.652,78.724 C305.591,77.702 307.992,78.408 309.034,80.346 C310.062,82.278 309.343,84.693 307.411,85.727 C290.796,94.626 206.298,104.906 174.984,105.789" fill-opacity="0" stroke="#3E3E3E" stroke-width="6.667"/>
      </g>
    </g>
  </g>
</svg>
