<?xml version="1.0" encoding="UTF-8"?>
<!DOCTYPE svg PUBLIC "-//W3C//DTD SVG 1.1//EN" "http://www.w3.org/Graphics/SVG/1.1/DTD/svg11.dtd">
<svg version="1.1" xmlns="http://www.w3.org/2000/svg" xmlns:xlink="http://www.w3.org/1999/xlink" x="0" y="0" width="600" height="600" viewBox="0, 0, 600, 600">
  <g id="Layer_1">
    <path d="M300,600 C134.315,600 0,465.685 0,300 C0,134.315 134.315,0 300,0 C465.685,0 600,134.315 600,300 C600,465.685 465.685,600 300,600 z" fill="#b2415e"/>
    <path d="M148.214,360.938 L282.812,450.67 L282.812,370.536 L208.259,320.759 z M134.375,328.795 L177.455,300 L134.375,271.205 L134.375,328.795 z M317.188,450.67 L451.786,360.938 L391.741,320.759 L317.188,370.536 L317.188,450.67 z M300,340.625 L360.714,300 L300,259.375 L239.286,300 z M208.259,279.241 L282.812,229.464 L282.812,149.33 L148.214,239.062 z M422.545,300 L465.625,328.795 L465.625,271.205 z M391.741,279.241 L451.786,239.062 L317.188,149.33 L317.188,229.464 z M500,239.062 L500,360.938 Q500,370.089 492.411,375.223 L309.598,497.098 Q304.911,500 300,500 Q295.089,500 290.402,497.098 L107.589,375.223 Q100,370.089 100,360.938 L100,239.062 Q100,229.911 107.589,224.777 L290.402,102.902 Q295.089,100 300,100 Q304.911,100 309.598,102.902 L492.411,224.777 Q500,229.911 500,239.062 z" fill="#FFFFFF"/>
  </g>
</svg>
