<?xml version="1.0" encoding="UTF-8"?>
<!DOCTYPE svg PUBLIC "-//W3C//DTD SVG 1.1//EN" "http://www.w3.org/Graphics/SVG/1.1/DTD/svg11.dtd">
<svg version="1.1" xmlns="http://www.w3.org/2000/svg" xmlns:xlink="http://www.w3.org/1999/xlink" x="0" y="0" width="280" height="280" viewBox="0, 0, 280, 280">
  <g id="Background">
    <path d="M124.49,193.736 C124.49,193.736 122.902,184.757 122.902,184.757 C122.902,184.757 113.902,183.781 113.902,183.781 C113.902,183.781 105.902,178.898 105.902,178.898 C105.902,178.898 99.902,169.134 99.902,169.134 C99.902,169.134 93.902,156.441 93.902,156.441 C93.902,156.441 101.902,152.535 101.902,152.535 C101.902,152.535 98.902,120.313 98.902,120.313 C98.902,120.313 107.902,99.808 107.902,99.808 C107.902,99.808 125.902,95.902 125.902,95.902 C125.902,95.902 154.902,95.902 154.902,95.902 C154.902,95.902 173.902,101.761 173.902,101.761 C173.902,101.761 181.902,119.336 181.902,119.336 C181.902,119.336 180.902,154.488 180.902,154.488 C180.902,154.488 173.902,174.993 172.902,174.993 C171.902,174.993 165.902,185.733 165.902,185.733 C165.902,185.733 156.805,193.736 156.805,193.736 C156.805,193.736 123.49,193.736 124.49,193.736 z" fill="#FFFFFF"/>
  </g>
  <g id="Layer_1">
    <g id="github" display="none">
      <path d="M139.898,83.853 C108.921,83.853 83.796,110.082 84.001,141.849 C84.197,172.323 113.346,196.147 139.276,196.147 C178.838,196.147 196.001,166.778 196.001,141.372 C196.001,109.604 170.852,83.902 139.868,83.902" fill="#A44C61"/>
      <path d="M139.898,83.853 L139.867,83.902 C170.852,83.902 196.001,109.604 196.001,141.372 C196.001,166.778 178.838,196.147 139.276,196.147 C113.346,196.147 84.197,172.323 84.001,141.849 C83.796,110.082 108.921,83.853 139.898,83.853 z M139.867,85.854 C108.805,86.334 86.558,111.519 86.001,141.836 C86.179,169.593 112.714,194.147 139.276,194.147 C157.222,194.147 171.325,187.953 180.971,176.967 C189.433,167.33 194.001,154.357 194.001,141.372 C194.001,110.714 169.752,85.902 139.867,85.902 L139.867,85.854 z" fill="#A44C61"/>
    </g>
    <g>
      <path d="M140,277.911 C63.834,277.911 2.089,216.166 2.089,140 C2.089,63.834 63.834,2.089 140,2.089 C216.166,2.089 277.911,63.834 277.911,140 C277.911,216.166 216.166,277.911 140,277.911 z" fill="#A44C61"/>
      <path d="M140,2.089 C216.166,2.089 277.911,63.834 277.911,140 C277.911,216.166 216.166,277.911 140,277.911 C63.834,277.911 2.089,216.166 2.089,140 C2.089,63.834 63.834,2.089 140,2.089 z M140,8.089 C67.148,8.089 8.089,67.148 8.089,140 C8.089,212.852 67.148,271.911 140,271.911 C212.852,271.911 271.911,212.852 271.911,140 C271.911,67.148 212.852,8.089 140,8.089 z" fill="#3B102B"/>
    </g>
    <path d="M178.401,266.694 C178.489,255.538 178.532,243.376 178.543,232.22 C178.543,219.032 174.133,210.407 169.184,206.042 C199.893,202.546 232.128,190.598 232.128,136.299 C232.128,120.872 226.788,108.256 217.954,98.372 C219.374,94.797 224.105,80.429 216.583,60.967 C216.583,60.967 205.031,57.168 178.713,75.458 C167.702,72.325 155.907,70.755 144.202,70.703 C132.481,70.755 120.683,72.325 109.692,75.458 C83.357,57.168 71.78,60.967 71.78,60.967 C64.281,80.429 69.011,94.797 70.434,98.372 C61.617,108.256 56.243,120.872 56.243,136.299 C56.243,190.458 88.426,202.59 119.035,206.155 C115.091,209.687 111.537,215.916 110.284,225.052 C102.431,228.662 82.46,234.901 70.163,213.304 C70.163,213.304 62.885,199.742 49.048,198.737 C49.048,198.737 35.584,198.562 48.102,207.335 C48.102,207.335 57.14,211.682 63.411,228.003 C63.411,228.003 71.5,255.491 109.844,246.951 C109.892,254.516 109.478,261.434 109.54,268.998 C114.568,270.033 115.857,270.267 115.857,270.267 C123.904,271.319 125.035,271.455 125.035,271.455 C130.417,271.862 134.262,271.907 134.262,271.907 C136.704,271.907 139.146,271.862 139.146,271.862 C140.91,271.772 143.669,271.726 143.669,271.726 C143.669,271.726 147.423,271.41 147.423,271.41 C149.639,271.365 152.76,270.987 152.76,270.987 C155.7,270.731 162.846,269.827 162.846,269.827 C162.846,269.827 170.082,268.515 170.082,268.515" fill="#FFFFFF"/>
  </g>
</svg>
