<?xml version="1.0" encoding="UTF-8"?>
<!DOCTYPE svg PUBLIC "-//W3C//DTD SVG 1.1//EN" "http://www.w3.org/Graphics/SVG/1.1/DTD/svg11.dtd">
<svg version="1.1" xmlns="http://www.w3.org/2000/svg" xmlns:xlink="http://www.w3.org/1999/xlink" x="0" y="0" width="112.196" height="112.196" viewBox="0, 0, 112.196, 112.196">
  <g id="Background">
    <path d="M40.588,112.196 C40.588,112.196 39,103 39,103 C39,103 30,102 30,102 C30,102 22,97 22,97 C22,97 16,87 16,87 C16,87 10,74 10,74 C10,74 18,70 18,70 C18,70 15,37 15,37 C15,37 24,16 24,16 C24,16 42,12 42,12 C42,12 71,12 71,12 C71,12 90,18 90,18 C90,18 98,36 98,36 C98,36 97,72 97,72 C97,72 90,93 89,93 C88,93 82,104 82,104 C82,104 72.903,112.196 72.903,112.196 C72.903,112.196 39.588,112.196 40.588,112.196 z" fill="#FFFFFF"/>
  </g>
  <g id="Layer_1">
    <g>
      <path d="M112.196,56.098 C112.196,87.08 87.08,112.196 56.098,112.196 C25.116,112.196 0,87.08 0,56.098 C0,25.116 25.116,0 56.098,0 C87.08,0 112.196,25.116 112.196,56.098 z" fill="#F26798" display="none"/>
      <path d="M56.097,20.472 C36.428,20.472 20.426,36.455 20.426,56.099 C20.426,75.743 36.428,91.725 56.097,91.725 C75.767,91.725 91.77,75.744 91.77,56.099 C91.77,36.455 75.767,20.472 56.097,20.472 L56.097,20.472 z M79.57,37.287 C83.639,42.33 86.112,48.699 86.226,55.639 C84.872,55.361 79.138,54.292 72.286,54.292 C70.075,54.292 67.748,54.403 65.415,54.691 C65.218,54.212 65.021,53.735 64.814,53.253 C64.209,51.83 63.557,50.418 62.882,49.027 C73.428,44.682 78.515,38.652 79.57,37.287 L79.57,37.287 z M56.097,26.049 C63.698,26.049 70.646,28.873 75.953,33.524 C75.113,34.67 70.557,40.365 60.388,44.207 C55.681,35.603 50.529,28.478 49.303,26.824 C51.488,26.318 53.762,26.049 56.097,26.049 L56.097,26.049 z M43.152,28.969 C44.191,30.4 49.351,37.601 54.179,46.136 C41.222,49.542 29.716,49.764 26.939,49.764 L26.644,49.764 C28.639,40.57 34.851,32.93 43.152,28.969 L43.152,28.969 z M25.96,56.146 C25.96,55.898 25.964,55.65 25.972,55.403 C26.152,55.405 26.418,55.405 26.763,55.405 C30.503,55.405 43.485,55.096 56.863,51.126 C57.675,52.714 58.448,54.326 59.167,55.937 C58.829,56.034 58.496,56.131 58.165,56.239 C43.102,61.104 34.823,73.983 33.549,76.088 C28.829,70.77 25.96,63.788 25.96,56.146 L25.96,56.146 z M56.097,86.241 C49.185,86.241 42.806,83.9 37.716,79.975 C38.577,78.287 44.826,67.036 61.333,61.291 C61.343,61.287 61.354,61.283 61.366,61.28 C65.505,72.056 67.258,81.1 67.739,83.903 C64.157,85.409 60.223,86.241 56.097,86.241 L56.097,86.241 z M73.167,80.936 C72.763,78.617 71.139,70.141 67.391,59.803 C69.493,59.476 71.538,59.347 73.456,59.347 C79.755,59.347 84.682,60.726 85.827,61.076 C84.466,69.285 79.766,76.389 73.167,80.936 L73.167,80.936 z" fill="#F1F2F2" display="none"/>
    </g>
    <path d="M56.093,-0 C25.116,-0 0,25.751 0,57.519 C0,82.932 16.072,104.488 38.364,112.098 C41.171,112.624 42.194,110.848 42.194,109.322 C42.194,107.959 42.145,104.34 42.118,99.541 C26.514,103.016 23.222,91.83 23.222,91.83 C20.67,85.188 16.992,83.419 16.992,83.419 C11.898,79.849 17.377,79.92 17.377,79.92 C23.008,80.329 25.97,85.848 25.97,85.848 C30.974,94.637 39.101,92.098 42.297,90.629 C42.807,86.911 44.253,84.376 45.858,82.939 C33.402,81.488 20.305,76.551 20.305,54.511 C20.305,48.233 22.492,43.099 26.08,39.077 C25.501,37.622 23.576,31.775 26.628,23.855 C26.628,23.855 31.339,22.309 42.056,29.752 C46.529,28.477 51.33,27.838 56.1,27.817 C60.863,27.838 65.663,28.477 70.144,29.752 C80.854,22.309 85.555,23.855 85.555,23.855 C88.616,31.775 86.691,37.622 86.113,39.077 C89.708,43.099 91.881,48.233 91.881,54.511 C91.881,76.608 78.763,81.47 66.266,82.893 C68.28,84.669 70.075,88.179 70.075,93.546 C70.075,101.233 70.006,107.437 70.006,109.322 C70.006,110.862 71.015,112.652 73.863,112.091 C96.137,104.467 112.196,82.925 112.196,57.519 C112.196,25.751 87.077,-0 56.093,-0" fill="#B3415E" id="github"/>
  </g>
</svg>
