<?xml version="1.0" encoding="UTF-8"?>
<!DOCTYPE svg PUBLIC "-//W3C//DTD SVG 1.1//EN" "http://www.w3.org/Graphics/SVG/1.1/DTD/svg11.dtd">
<svg version="1.1" xmlns="http://www.w3.org/2000/svg" xmlns:xlink="http://www.w3.org/1999/xlink" x="0" y="0" width="500" height="500" viewBox="0, 0, 500, 500">
  <g id="Icons">
    <path d="M250,500 C111.929,500 -0,388.071 -0,250 C-0,111.929 111.929,-0 250,-0 C388.071,-0 500,111.929 500,250 C500,388.071 388.071,500 250,500 z" fill="#b3415e"/>
    <path d="M250,127.066 C290.039,127.066 294.782,127.219 310.595,127.94 C325.215,128.608 333.155,131.05 338.439,133.104 C344.952,135.507 350.844,139.34 355.681,144.321 C360.661,149.158 364.494,155.049 366.898,161.562 C368.952,166.846 371.395,174.786 372.061,189.407 C372.783,205.219 372.936,209.961 372.936,250.002 C372.936,290.042 372.783,294.783 372.061,310.597 C371.394,325.217 368.951,333.157 366.898,338.441 C361.853,351.519 351.517,361.855 338.439,366.9 C333.155,368.954 325.215,371.396 310.595,372.063 C294.786,372.785 290.043,372.938 250,372.938 C209.957,372.938 205.216,372.785 189.405,372.063 C174.785,371.396 166.845,368.953 161.561,366.9 C155.048,364.496 149.156,360.663 144.319,355.683 C139.339,350.846 135.506,344.954 133.102,338.441 C131.048,333.157 128.605,325.217 127.939,310.597 C127.217,294.785 127.064,290.042 127.064,250.002 C127.064,209.961 127.217,205.22 127.939,189.407 C128.606,174.786 131.048,166.847 133.102,161.562 C135.506,155.049 139.339,149.157 144.32,144.32 C149.157,139.34 155.049,135.507 161.562,133.103 C166.846,131.049 174.786,128.607 189.406,127.94 C205.218,127.218 209.961,127.065 250.001,127.065 L250,127.066 z M250.001,100.047 C209.276,100.047 204.168,100.22 188.176,100.949 C172.215,101.678 161.315,104.213 151.777,107.92 C141.771,111.685 132.707,117.587 125.217,125.215 C117.587,132.705 111.683,141.769 107.917,151.775 C104.213,161.314 101.678,172.214 100.952,188.175 C100.22,204.167 100.047,209.275 100.047,250 C100.047,290.725 100.22,295.833 100.952,311.825 C101.681,327.786 104.215,338.686 107.923,348.224 C111.688,358.23 117.59,367.294 125.218,374.784 C132.708,382.412 141.772,388.315 151.778,392.08 C161.317,395.787 172.217,398.321 188.177,399.05 C204.171,399.78 209.278,399.952 250.002,399.952 C290.727,399.952 295.836,399.78 311.827,399.05 C327.789,398.321 338.689,395.787 348.227,392.08 C368.369,384.29 384.292,368.367 392.082,348.224 C395.789,338.686 398.324,327.786 399.052,311.825 C399.782,295.831 399.955,290.724 399.955,250 C399.955,209.276 399.782,204.167 399.052,188.175 C398.324,172.214 395.789,161.314 392.082,151.776 C388.317,141.77 382.414,132.706 374.786,125.216 C367.296,117.586 358.232,111.683 348.225,107.917 C338.686,104.213 327.786,101.678 311.825,100.952 C295.833,100.22 290.725,100.047 250,100.047 L250,100.047 L250.001,100.047 z" fill="#FFFFFF" id="Shape"/>
    <path d="M250,172.997 C207.472,172.997 172.997,207.472 172.997,250 C172.997,292.528 207.472,327.003 250,327.003 C292.528,327.003 327.003,292.528 327.003,250 C327.003,207.472 292.528,172.997 250,172.997 L250,172.997 z M250,299.984 C222.395,299.984 200.016,277.605 200.017,250 C200.017,222.394 222.396,200.016 250.001,200.016 C277.606,200.016 299.985,222.395 299.985,250 C299.984,277.605 277.605,299.984 250,299.984 L250,299.984 z" fill="#FFFFFF" id="Shape"/>
    <path d="M348.039,169.955 C348.039,179.893 339.983,187.949 330.045,187.949 C320.107,187.949 312.051,179.893 312.051,169.955 C312.051,160.017 320.107,151.961 330.045,151.961 C339.983,151.961 348.039,160.017 348.039,169.955 z" fill="#FFFFFF" id="Oval"/>
  </g>
</svg>
