<?xml version="1.0" encoding="UTF-8"?>
<!DOCTYPE svg PUBLIC "-//W3C//DTD SVG 1.1//EN" "http://www.w3.org/Graphics/SVG/1.1/DTD/svg11.dtd">
<svg version="1.1" xmlns="http://www.w3.org/2000/svg" xmlns:xlink="http://www.w3.org/1999/xlink" x="0" y="0" width="112.196" height="112.196" viewBox="0, 0, 112.196, 112.196">
  <g id="Layer_1">
    <g>
      <g>
        <path d="M112.196,56.097 C112.196,87.079 87.08,112.195 56.098,112.195 C25.116,112.195 0,87.079 0,56.097 C0,25.115 25.116,-0.001 56.098,-0.001 C87.08,-0.001 112.196,25.115 112.196,56.097 z" fill="#B3415E"/>
        <path d="M56.098,-0.001 C87.08,-0.001 112.196,25.115 112.196,56.097 C112.196,87.079 87.08,112.195 56.098,112.195 C25.116,112.195 0,87.079 0,56.097 C0,25.115 25.116,-0.001 56.098,-0.001 z M56.098,1.999 C26.22,1.999 2,26.219 2,56.097 C2,85.975 26.22,110.195 56.098,110.195 C85.976,110.195 110.196,85.975 110.196,56.097 C110.196,26.219 85.976,1.999 56.098,1.999 z" fill="#3B102B"/>
      </g>
      <path d="M89.616,60.611 L89.616,83.739 L76.207,83.739 L76.207,62.161 C76.207,56.743 74.271,53.043 69.416,53.043 C65.711,53.043 63.51,55.534 62.538,57.946 C62.185,58.808 62.094,60.005 62.094,61.214 L62.094,83.738 L48.684,83.738 C48.684,83.738 48.864,47.192 48.684,43.409 L62.095,43.409 L62.095,49.124 C62.068,49.169 62.03,49.213 62.006,49.256 L62.095,49.256 L62.095,49.124 C63.877,46.382 67.055,42.462 74.18,42.462 C83.002,42.462 89.616,48.226 89.616,60.611 L89.616,60.611 z M34.656,23.969 C30.069,23.969 27.068,26.98 27.068,30.936 C27.068,34.808 29.982,37.906 34.48,37.906 L34.567,37.906 C39.244,37.906 42.152,34.808 42.152,30.936 C42.063,26.98 39.244,23.969 34.656,23.969 L34.656,23.969 z M27.865,83.739 L41.27,83.739 L41.27,43.409 L27.865,43.409 L27.865,83.739 z" fill="#F1F2F2"/>
    </g>
  </g>
</svg>
