<?xml version="1.0" encoding="UTF-8"?>
<!DOCTYPE svg PUBLIC "-//W3C//DTD SVG 1.1//EN" "http://www.w3.org/Graphics/SVG/1.1/DTD/svg11.dtd">
<svg version="1.1" xmlns="http://www.w3.org/2000/svg" xmlns:xlink="http://www.w3.org/1999/xlink" x="0" y="0" width="280" height="280" viewBox="0, 0, 280, 280">
  <g id="Layer_1">
    <g>
      <g>
        <path d="M140,2.5 C215.943,2.5 277.5,64.066 277.5,140 C277.5,215.944 215.943,277.5 140,277.5 C64.056,277.5 2.5,215.943 2.5,140 C2.5,64.066 64.057,2.5 140,2.5 z" fill="#B3415E"/>
        <path d="M139.999,2.5 C215.943,2.5 277.5,64.066 277.5,140 C277.5,215.944 215.943,277.5 140,277.5 C64.056,277.5 2.5,215.943 2.5,140 C2.5,64.066 64.057,2.5 140,2.5 z M139.999,8.5 C67.374,8.5 8.5,67.376 8.5,140 C8.5,212.63 67.37,271.5 139.999,271.5 C212.629,271.5 271.5,212.63 271.5,140 C271.5,67.376 212.626,8.5 139.999,8.5 z" fill="#000000"/>
      </g>
      <path d="M62.656,114.218 C75.512,103.957 93.792,81.424 108.049,81.424 C122.288,81.424 125.786,98.242 127.729,113.496 C129.697,128.75 135.291,162.12 142.819,162.12 C150.364,162.12 167.543,132.601 166.564,121.196 C165.601,109.792 153.158,111.503 146.318,114.777 C152.608,91.97 167.131,79.843 185.702,79.843 C204.282,79.843 208.759,92.966 208.759,109.079 C208.759,133.606 159.044,208.75 129.009,208.75 C110.429,208.75 105.823,181.37 102.059,167.818 C98.286,154.283 90.878,118.765 82.216,116.487 C78.856,115.928 69.369,123.465 69.369,123.465 L62.656,114.218 z" fill="#FFFFFF"/>
    </g>
  </g>
</svg>
